<svg xmlns="http://www.w3.org/2000/svg" width="120" height="120" viewBox="0 0 120 120"><g fill="#191717"><path fill-rule="evenodd" clip-rule="evenodd" d="M60 0C26.867 0 0 27.542 0 61.518c0 27.182 17.19 50.24 41.032 58.377 2.998.568 4.1-1.336 4.1-2.96 0-1.468-.056-6.314-.082-11.454-16.692 3.722-20.214-7.257-20.214-7.257-2.73-7.11-6.662-9.002-6.662-9.002-5.444-3.817.41-3.74.41-3.74 6.025.435 9.198 6.342 9.198 6.342 5.35 9.403 14.036 6.686 17.46 5.114.54-3.977 2.093-6.69 3.81-8.23-13.327-1.552-27.337-6.83-27.337-30.4 0-6.717 2.344-12.205 6.183-16.514-.623-1.55-2.677-7.807.58-16.28 0 0 5.04-1.653 16.505 6.306 4.786-1.364 9.92-2.047 15.018-2.07 5.1.023 10.236.706 15.03 2.07 11.455-7.96 16.484-6.307 16.484-6.307 3.266 8.475 1.213 14.732.59 16.282 3.847 4.31 6.176 9.796 6.176 16.513 0 23.63-14.037 28.83-27.398 30.355 2.152 1.908 4.07 5.652 4.07 11.39 0 8.232-.07 14.858-.07 16.884 0 1.638 1.08 3.556 4.122 2.953C102.83 111.742 120 88.69 120 61.517 120 27.543 93.137 0 60 0z"/><path d="M22.725 88.328c-.132.306-.602.397-1.028.187-.436-.2-.68-.616-.54-.923.13-.314.6-.402 1.034-.193.437.2.685.62.535.928zm-.738-.56M25.156 91.107c-.286.27-.846.145-1.226-.285-.393-.43-.466-1.002-.176-1.28.295-.27.837-.142 1.23.286.394.434.47 1.002.172 1.28zm-.573-.63M27.52 94.648c-.367.264-.97.018-1.34-.53-.368-.546-.368-1.202.01-1.465.37-.263.963-.026 1.34.515.367.558.367 1.215-.01 1.48zm0 0M30.762 98.073c-.33.372-1.03.27-1.542-.237-.525-.495-.67-1.2-.34-1.57.332-.373 1.037-.268 1.553.236.52.494.68 1.203.33 1.57zm0 0M35.233 100.06c-.146.483-.82.702-1.5.497-.68-.21-1.123-.776-.986-1.262.14-.486.82-.715 1.503-.496.68.21 1.124.77.983 1.26zm0 0M40.144 100.43c.016.507-.56.926-1.273.937-.716.016-1.297-.394-1.305-.894 0-.514.563-.93 1.28-.94.714-.015 1.3.393 1.3.896zm0 0M44.713 99.63c.085.497-.41 1.004-1.12 1.14-.696.13-1.34-.176-1.43-.665-.085-.507.42-1.017 1.115-1.147.71-.127 1.345.17 1.435.673zm0 0"/></g></svg>