<svg xmlns="http://www.w3.org/2000/svg" width="34" height="34" viewBox="0 0 34 34"><path fill="#1187C9" d="M0 0h34v34H0z"/><path fill="#fff" d="M12.228 24.108H8.914V13.5h3.313V24.11zm-1.742-11.934h-.024c-1.2 0-1.977-.81-1.977-1.837 0-1.048.8-1.842 2.024-1.842 1.22 0 1.973.792 1.997 1.84 0 1.026-.776 1.84-2.02 1.84zm15 11.934h-3.758v-5.49c0-1.436-.587-2.416-1.88-2.416-.99 0-1.538.66-1.794 1.3-.096.227-.08.545-.08.866v5.74H14.25s.048-9.724 0-10.607h3.722v1.666c.22-.73 1.41-1.767 3.308-1.767 2.354 0 4.205 1.525 4.205 4.81v5.898z"/></svg>