<svg xmlns="http://www.w3.org/2000/svg" width="34" height="34" viewBox="0 0 34 34"><path fill="#fff" d="M0 0h34v34H0z"/><path fill="#DE7926" d="M21.962 15.837H17.66v-4.36h-1.778v4.36H11.58v1.803h4.302V22h1.778v-4.36h4.302z"/><path fill="#263F81" d="M28.903 23.176H25.22v-3.734h-1.524v3.734h-3.684v1.543h3.684v3.733h1.523V24.72h3.683z"/><path fill="#5F869C" d="M28.903 8.7H25.22V4.964h-1.524V8.7h-3.684v1.543h3.684v3.734h1.523v-3.734h3.683zM19.725 4.53H17.23V2h-1.032v2.53h-2.496v1.045h2.496v2.53h1.03v-2.53h2.497zM7.62 16.25H5.293v-2.36H4.33v2.36H2v.976h2.33v2.36h.962v-2.36h2.33z"/><path fill="#BD2533" d="M13.644 23.334H9.746v-3.95h-1.61v3.95h-3.9v1.634h3.9v3.95h1.61v-3.95h3.898z"/><path fill="#5C6494" d="M20.07 27.948h-2.83v-2.866h-1.17v2.866h-2.827v1.185h2.828V32h1.17v-2.867h2.83zM32 16.32h-2.83v-2.867h-1.167v2.867h-2.83v1.185h2.83v2.868h1.168v-2.868H32z"/><path fill="#E29325" d="M13.444 8.735h-3.72v-3.77H8.186v3.77h-3.72v1.56h3.72v3.77h1.538v-3.77h3.72z"/></svg>