<svg xmlns="http://www.w3.org/2000/svg" width="120" height="120" viewBox="0 0 120 120"><path fill="#323333" d="M0 0h120v120H0z"/><g><path fill="#28AAE2" d="M92.397 41.133c-2.35 1.037-4.868 1.74-7.512 2.054 2.7-1.616 4.773-4.183 5.743-7.236-2.53 1.504-5.325 2.588-8.3 3.177C79.94 36.587 76.547 35 72.782 35c-7.217 0-13.073 5.857-13.073 13.073 0 1.027.113 2.025.343 2.976-10.868-.543-20.5-5.753-26.945-13.663-1.122 1.93-1.77 4.173-1.77 6.57 0 4.534 2.31 8.537 5.82 10.876-2.14-.066-4.156-.656-5.924-1.636v.162c0 6.33 4.506 11.618 10.486 12.816-1.093.294-2.253.456-3.44.456-.847 0-1.665-.086-2.463-.238 1.664 5.19 6.494 8.975 12.208 9.08-4.478 3.51-10.107 5.6-16.24 5.6-1.055 0-2.09-.066-3.118-.18 5.78 3.708 12.655 5.875 20.042 5.875 24.043 0 37.193-19.92 37.193-37.195 0-.57-.01-1.132-.038-1.692 2.558-1.844 4.772-4.145 6.522-6.77l.01.02z"/></g></svg>