<?xml version="1.0" encoding="utf-8"?>
<!-- Generator: Adobe Illustrator 16.0.0, SVG Export Plug-In . SVG Version: 6.00 Build 0)  -->
<!DOCTYPE svg PUBLIC "-//W3C//DTD SVG 1.1//EN" "http://www.w3.org/Graphics/SVG/1.1/DTD/svg11.dtd">
<svg version="1.1" id="Layer_1" xmlns="http://www.w3.org/2000/svg" xmlns:xlink="http://www.w3.org/1999/xlink" x="0px" y="0px"
	 width="215.716px" height="161.273px" viewBox="0 0 215.716 161.273" enable-background="new 0 0 215.716 161.273"
	 xml:space="preserve">
<g>
	<path fill="#FFFFFF" d="M20.52,107.178c2.457-2.719,3.686-5.945,3.686-9.681v-5.582c0-3.721-1.229-6.599-3.686-8.631
		s-5.511-2.792-9.161-2.277L0.152,82.586v31.02l11.206-1.579C15.009,111.512,18.062,109.896,20.52,107.178z M16.983,98.516
		c0,2.158-0.54,3.971-1.619,5.437c-1.08,1.466-2.578,2.334-4.495,2.604l-3.494,0.492V87.107l3.494-0.492
		c1.917-0.271,3.416,0.172,4.495,1.326c1.079,1.154,1.619,2.805,1.619,4.949V98.516z"/>
	<path fill="#FFFFFF" d="M27.025,78.799v20.324c0,3.537,1.178,6.112,3.538,7.726c2.357,1.614,5.459,2.149,9.308,1.606
		c3.806-0.536,6.885-1.942,9.237-4.221c2.35-2.275,3.525-5.183,3.525-8.72V75.19l-7.222,1.018v20.324
		c0,1.918-0.479,3.398-1.439,4.442c-0.959,1.045-2.326,1.691-4.102,1.941c-1.789,0.252-3.173-0.01-4.154-0.788
		c-0.979-0.778-1.47-2.119-1.47-4.022V77.781L27.025,78.799z"/>
	<path fill="#FFFFFF" d="M77.738,84.115c0.695-1.248,1.043-2.611,1.043-4.089c0-2.826-1.079-4.801-3.237-5.924
		c-2.159-1.123-5.164-1.413-9.013-0.871L55.88,74.732v31.02l12.186-1.717c3.792-0.535,6.704-1.72,8.735-3.554
		c2.031-1.834,3.046-4.265,3.046-7.29c0-1.619-0.433-2.988-1.3-4.109c-0.866-1.12-2.208-1.758-4.026-1.914
		C75.97,86.382,77.042,85.363,77.738,84.115z M63.102,79.254l3.43-0.483c1.705-0.24,2.969-0.117,3.792,0.371
		c0.824,0.488,1.236,1.392,1.236,2.712c0,1.166-0.405,2.106-1.214,2.824c-0.81,0.719-2.032,1.206-3.664,1.465l-3.58,0.504V79.254z
		 M71.518,97.104c-0.767,0.712-1.917,1.176-3.451,1.393l-4.964,0.699v-7.776l5.369-0.757c1.478-0.208,2.546-0.014,3.207,0.582
		s0.99,1.568,0.99,2.918C72.667,95.412,72.285,96.393,71.518,97.104z"/>
	<polygon fill="#FFFFFF" points="82.412,70.994 82.412,102.014 89.634,100.995 89.634,88.511 101.117,86.893 101.117,99.377 
		108.297,98.365 108.297,67.346 101.117,68.357 101.117,81.354 89.634,82.972 89.634,69.976 	"/>
	<path fill="#FFFFFF" d="M119.81,65.723l-10.014,32.431l7.244-1.021l1.747-6.275l9.778-1.378l1.769,5.78l7.243-1.021l-10.034-29.605
		L119.81,65.723z M120.385,85.094l3.217-11.554l0.128-0.018l3.238,10.644L120.385,85.094z"/>
	<path fill="#FFFFFF" d="M145.938,69.104c0.938-1.445,2.223-2.284,3.856-2.514c1.931-0.272,3.298,0.025,4.101,0.892
		c0.803,0.867,1.253,2.302,1.353,4.304l7.009-0.988l0.043-0.133c-0.27-3.599-1.44-6.238-3.515-7.921
		c-2.073-1.681-5.07-2.246-8.99-1.694c-3.693,0.521-6.694,2.126-9.001,4.815c-2.309,2.69-3.462,5.91-3.462,9.66v6.477
		c0,3.764,1.199,6.656,3.6,8.676c2.4,2.019,5.518,2.758,9.354,2.218c3.82-0.538,6.734-1.908,8.745-4.108
		c2.01-2.2,3.085-5.129,3.227-8.785l-0.042-0.122l-7.009,0.988c-0.1,2.031-0.512,3.56-1.236,4.584
		c-0.724,1.026-1.953,1.66-3.685,1.904c-1.79,0.252-3.196-0.21-4.22-1.388c-1.021-1.176-1.533-2.837-1.533-4.981v-6.52
		C144.531,72.338,145,70.549,145.938,69.104z"/>
	<polygon fill="#FFFFFF" points="164.608,59.41 164.608,90.43 171.83,89.412 171.83,76.969 175.153,76.501 182.099,87.965 
		190.876,86.728 180.438,71.219 190.045,55.825 181.098,57.086 174.28,70.19 171.83,70.536 171.83,58.392 	"/>
	<path fill="#FFFFFF" d="M203.39,79.979c-1.959,0.276-3.422,0.099-4.388-0.532c-0.966-0.63-1.449-1.84-1.449-3.63l-7.01,0.988
		l-0.042,0.134c-0.07,3.333,1.179,5.703,3.75,7.109c2.57,1.406,5.617,1.86,9.139,1.364c3.509-0.494,6.324-1.661,8.448-3.502
		c2.123-1.84,3.186-4.124,3.186-6.852c0-2.684-0.892-4.667-2.674-5.95c-1.783-1.283-4.436-2.201-7.958-2.755
		c-2.287-0.502-3.846-0.968-4.676-1.398c-0.831-0.429-1.247-1.099-1.247-2.008c0-0.938,0.412-1.783,1.236-2.538
		c0.823-0.756,1.96-1.235,3.408-1.439c1.477-0.208,2.635,0.016,3.473,0.672c0.839,0.656,1.257,1.601,1.257,2.837l6.988-0.985
		l0.042-0.134c0.072-2.793-0.99-4.92-3.184-6.379c-2.195-1.459-5.012-1.946-8.448-1.462c-3.466,0.488-6.324,1.694-8.575,3.616
		c-2.252,1.923-3.377,4.183-3.377,6.783c0,2.67,0.944,4.579,2.834,5.725c1.889,1.147,4.794,2.062,8.714,2.745
		c1.874,0.404,3.174,0.853,3.898,1.347c0.724,0.495,1.087,1.289,1.087,2.382c0,0.966-0.366,1.798-1.098,2.499
		C205.993,79.314,204.882,79.768,203.39,79.979z"/>
	<path fill="#FFFFFF" d="M173.42,35.812c-0.052-0.08-0.091-0.143-0.148-0.228C158.765,14.131,134.215,0,106.425,0
		c-35.88,0-66.365,23.559-76.793,56.02v0.001L0,60.184v3.684l215.716-30.315v-3.684L173.42,35.812z M33.252,55.512
		c0-0.002,0.002-0.002,0.002-0.004C43.708,25.146,72.561,3.273,106.425,3.273c26.186,0,49.374,13.076,63.378,33.041
		c0,0.002,0.001,0.004,0.003,0.006L33.252,55.512z"/>
	<path fill="#FFFFFF" d="M0,137.039l43.441-6.105c0,0.002,0,0.002,0.001,0.002c14.789,18.482,37.527,30.338,62.983,30.338
		c33.492,0,62.277-20.523,74.448-49.653l34.843-4.897v-3.684L0,133.355V137.039z M177.075,112.152c0,0.002-0.003,0.002-0.003,0.003
		C164.984,139.148,137.865,158,106.425,158c-23.721,0-44.981-10.736-59.18-27.6L177.075,112.152z"/>
</g>
</svg>
