<?xml version="1.0" encoding="utf-8"?>
<!-- Generator: Adobe Illustrator 16.0.0, SVG Export Plug-In . SVG Version: 6.00 Build 0)  -->
<!DOCTYPE svg PUBLIC "-//W3C//DTD SVG 1.1//EN" "http://www.w3.org/Graphics/SVG/1.1/DTD/svg11.dtd">
<svg version="1.1" id="Selected_Items" xmlns="http://www.w3.org/2000/svg" xmlns:xlink="http://www.w3.org/1999/xlink" x="0px"
	 y="0px" width="400px" height="400px" viewBox="0 0 400 400" enable-background="new 0 0 400 400" xml:space="preserve">
<path fill-rule="evenodd" clip-rule="evenodd" fill="#FFFFFF" fill-opacity="0.898" d="M367.6,171.45
	c-1.133-3.934-3.517-8.1-7.149-12.5c-8.8-8.333-28.967-8.35-60.5-0.05c-7.7,1.7-6.667,10.583,3.1,26.65
	c7.033,12.3,4.917,25.25-6.35,38.851c-21.134,33.866-26.184,72.716-15.15,116.55c-9.267-4.066-17.033-15.316-23.3-33.75
	c-3.5,11.1-6.316,17.7-8.45,19.8c-9.2-11.3-12.434-25.533-9.7-42.7c-8.633,18.334-15.149,26.233-19.55,23.7
	c-8.233-3-8.616-23.217-1.149-60.65c-13.101,16.067-24.05,25.517-32.851,28.351c-7.167,2.733-3.533-14.884,10.9-52.851
	c-16.1,15.634-25.517,21.284-28.25,16.95c-3.167-3.533-0.35-17.217,8.45-41.05c-8.367,5.4-15.35,6.934-20.95,4.6
	c3.066-10.766,10.233-21.149,21.5-31.149c-7.967,5.833-15.733,8.316-23.3,7.45c-5.733,28.734-15.383,41.6-28.95,38.6
	c13.466-7.434,17.867-20.183,13.2-38.25c6.533-1.933,13.467-8.683,20.8-20.25c4.833-2.3,4.7-5.883-0.4-10.75
	c-5.533-1.167-7-5.317-4.4-12.45c-8.333-10.767-20.283-15.383-35.85-13.85c-28,1.667-53.633,6.25-76.9,13.75
	c-5.933-3.067-0.183-7,17.25-11.8c-0.7-2-11.7-3.883-33-5.65c-3.2-5.733,6.5-8.567,29.1-8.5c-24.833-5.7-35.7-10.8-32.6-15.3
	c0.1-3.133,9.883-2.517,29.35,1.85C44.933,90.817,41.183,86.133,41.25,83c53.067,15,91.55,17.083,115.45,6.25
	c43.333-14.033,80.133-15.433,110.399-4.2c16.5,7.3,34.034,12.883,52.601,16.75c16.866,3.067,29.083,8.55,36.649,16.45
	C371.35,137.217,375.1,154.95,367.6,171.45z"/>
</svg>
