<?xml version="1.0" encoding="utf-8"?>
<!-- Generator: Adobe Illustrator 16.0.0, SVG Export Plug-In . SVG Version: 6.00 Build 0)  -->
<!DOCTYPE svg PUBLIC "-//W3C//DTD SVG 1.1//EN" "http://www.w3.org/Graphics/SVG/1.1/DTD/svg11.dtd">
<svg version="1.1" id="Selected_Items" xmlns="http://www.w3.org/2000/svg" xmlns:xlink="http://www.w3.org/1999/xlink" x="0px"
	 y="0px" width="400px" height="400px" viewBox="0 0 400 400" enable-background="new 0 0 400 400" xml:space="preserve">
<path fill-rule="evenodd" clip-rule="evenodd" fill="#616161" d="M180.374,33.172c1.841-4.709,5.115-7.063,9.824-7.063h43.858
	c4.709,0,6.143,2.354,4.302,7.063L106.143,370.937c-1.841,4.709-5.116,7.063-9.825,7.063H52.524c-4.708,0-6.143-2.354-4.302-7.063
	L180.374,33.172z M296.537,33.172c1.84-4.709,5.115-7.063,9.823-7.063h43.795c4.708,0,6.143,2.354,4.302,7.063L222.305,370.937
	c-1.84,4.709-5.116,7.063-9.824,7.063h-43.858c-4.708,0-6.143-2.354-4.302-7.063L296.537,33.172z"/>
</svg>
