<svg xmlns="http://www.w3.org/2000/svg" width="120" height="120" viewBox="0 0 120 120"><path fill-rule="evenodd" clip-rule="evenodd" fill="#fff" d="M21.15 62.102C24.35 75.93 32.417 100.9 61.613 101.28c28.038.51 38.412-19.975 44.684-39.564h-.126c-5.506 16.517-77.98 16.263-85.023.386zM43.557 67.587c4.34-3.208 6.668-6.382 7.12-9.702.597-4.416-2.234-8.032-4.73-11.217-3.966-5.062-5.84-7.925-1.633-12.71l-.527.445c2.48-1.54 4.49-2.042 5.658-1.407 1.17.635 1.933 2.678 1.988 5.336l.002.15.023.15c.056.38.046.876-.55 1.32-.68.5-1.74.643-2.418.32-.28-.133-.606-.39-.642-1.198l-4.735.213c.107 2.386 1.325 4.308 3.34 5.266 2.26 1.075 5.184.756 7.275-.792 1.88-1.393 2.764-3.518 2.416-5.83l.026.303c-.093-4.554-1.68-7.896-4.467-9.406-2.81-1.525-6.317-1-10.42 1.554l-.297.184-.23.263c-7.005 7.962-2.112 14.206 1.46 18.764 2.104 2.686 4.093 5.224 3.762 7.656-.265 1.96-2.028 4.157-5.24 6.532l2.82 3.81zM56.96 36.488c8.64 5.046 5.727 12.145 1.018 20.9-2.416 4.493-4.916 9.14-1 11.38l2.354-4.115c.2.116.344.39.354.528-.068-.84 1.398-3.56 2.466-5.544 3.92-7.288 10.476-19.487-2.803-27.242l-2.39 4.094zM94.134 7.295c-.893-5.76-7.042.902-11.522 3.59-4.486 3.452-8.325 6.143-13.062 9.6-4.482 3.456-23.174 16.516-24.068 20.49l48.652-33.68zM105.274 34.056c1.537-.894 1.663-2.046.515-3.583-7.687-.383-57.62 7.56-59.415 10.758 19.587-2.306 39.178-4.742 58.9-7.174zM42.793 114.596l38.025.384-3.966-10.114h-30.22z"/></svg>