<svg xmlns="http://www.w3.org/2000/svg" width="400" height="400" viewBox="0 0 400 400"><path fill-rule="evenodd" clip-rule="evenodd" fill="#5B5B5B" d="M302.725 112.35C324.24 137.114 335 166.33 335 200c0 37.267-13.184 69.083-39.55 95.45-2.622 2.62-5.297 5.113-8.025 7.475-19.676 17.02-42.15 27.27-67.425 30.75V195.1l82.725-82.75zM127.7 292.75c11.7 9.7 23.433 15.95 35.2 18.75v-35.45l-.5-.2-37.55 14.5c.933.834 1.883 1.633 2.85 2.4zM65 200c0-33.683 10.767-62.916 32.3-87.7L180 195v138.675c-28.78-3.964-53.93-16.705-75.45-38.225C78.183 269.083 65 237.267 65 200zm207.05 92.75c.934-.78 1.867-1.58 2.8-2.4l-38-14v35.15c11.778-2.81 23.51-9.06 35.2-18.75z"/></svg>