<svg xmlns="http://www.w3.org/2000/svg" width="400" height="400" viewBox="0 0 400 400"><g fill-rule="evenodd" clip-rule="evenodd"><path fill="#D23934" d="M263.15 294.15c-4.494-2.074-8.71-4.866-12.65-8.375-2.64-2.37-5.157-5.06-7.55-8.075-15.8-14.566-23.2-41-22.2-79.3.79-33.865 16.94-57.93 48.45-72.2 1.767-.794 3.583-1.56 5.45-2.3 2.848-.585 5.614-1.06 8.3-1.425 38.206-5.2 59.49 12.042 63.85 51.725 18.033 51.9 15.75 86.733-6.85 104.5-2.033 1.3-4.084 2.517-6.15 3.65-22.434 13.1-41.783 18.3-58.05 15.6-4.418-.704-8.618-1.97-12.6-3.8z"/><path fill="#B3D675" d="M282.95 122.475c-2.686.364-5.452.84-8.3 1.425-1.867.74-3.684 1.506-5.45 2.3-31.51 14.27-47.66 38.335-48.45 72.2-1 38.3 6.4 64.734 22.2 79.3 2.393 3.015 4.91 5.706 7.55 8.075 3.94 3.51 8.156 6.3 12.65 8.375-10.38 20.31-25.014 34.51-43.9 42.6-88.433 27.566-145.367 11.667-170.8-47.7-21.167-33.1-21.817-83.283-1.95-150.55 18.433-62.8 61.95-98.15 130.55-106.05 68.47 4.06 103.77 34.07 105.9 90.025z"/></g></svg>