<svg xmlns="http://www.w3.org/2000/svg" width="400" height="400" viewBox="0 0 400 400"><path fill-rule="evenodd" clip-rule="evenodd" fill="#FFFCC4" d="M389.85 234.25c6.767 23.066 10.15 47.717 10.15 73.95h-49.95c0-47.267-14.65-87.6-43.95-121-29.333-33.4-64.7-50.1-106.1-50.1-41.5 0-76.9 16.7-106.2 50.1-29.167 33.4-43.75 73.733-43.75 121H0c0-63.033 19.517-116.817 58.55-161.35C97.517 102.283 144.667 80 200 80c55.267 0 102.4 22.283 141.4 66.85 21.466 24.467 37.033 51.7 46.7 81.7.6 1.9 1.183 3.8 1.75 5.7zM325 338.2h-34.95c-.133-2.334-.267-4.6-.4-6.8-1.833-23.467-10.266-43.767-25.3-60.9-17.133-19.467-37.767-29.2-61.9-29.2-24.2 0-44.816 9.733-61.85 29.2-15.732 17.934-24.216 39.3-25.45 64.1 0 1.233-.065 2.434-.2 3.6h-40c0-1.166.067-2.366.2-3.6.634-37.833 12.768-70.25 36.4-97.25 24.4-27.8 53.884-41.7 88.45-41.7 34.567 0 64.034 13.9 88.4 41.7 23 26.267 35.15 57.617 36.45 94.05.1 2.2.15 4.466.15 6.8zm-182.95 36.15c.3-18.166 6.117-33.733 17.45-46.7 11.733-13.333 25.883-20 42.45-20 16.6 0 30.75 6.667 42.45 20 11.066 12.6 16.9 27.65 17.5 45.15.066 1.066.1 2.15.1 3.25h-16.8c-.066-1.1-.134-2.184-.2-3.25-.866-11.267-4.917-21.017-12.15-29.25-8.2-9.333-18.1-14-29.7-14-11.633 0-21.533 4.667-29.7 14-7.566 8.634-11.632 18.9-12.2 30.8 0 .6-.032 1.167-.1 1.7h-19.2c0-.533.033-1.1.1-1.7z"/></svg>