<?xml version="1.0" encoding="utf-8"?>
<!-- Generator: Adobe Illustrator 16.0.0, SVG Export Plug-In . SVG Version: 6.00 Build 0)  -->
<!DOCTYPE svg PUBLIC "-//W3C//DTD SVG 1.1//EN" "http://www.w3.org/Graphics/SVG/1.1/DTD/svg11.dtd">
<svg version="1.1" id="Selected_Items" xmlns="http://www.w3.org/2000/svg" xmlns:xlink="http://www.w3.org/1999/xlink" x="0px"
	 y="0px" width="400px" height="400px" viewBox="0 0 400 400" enable-background="new 0 0 400 400" xml:space="preserve">
<path fill-rule="evenodd" clip-rule="evenodd" fill="#FFFCC4" d="M389.85,234.25c6.767,23.066,10.15,47.717,10.15,73.95h-49.95
	c0-47.267-14.649-87.601-43.95-121c-29.333-33.4-64.699-50.1-106.1-50.1c-41.5,0-76.9,16.7-106.2,50.1
	c-29.167,33.399-43.75,73.733-43.75,121H0c0-63.033,19.517-116.817,58.55-161.35C97.517,102.283,144.667,80,200,80
	c55.267,0,102.4,22.283,141.4,66.85c21.466,24.467,37.033,51.7,46.699,81.7C388.7,230.45,389.283,232.35,389.85,234.25z M325,338.2
	h-34.95c-0.133-2.334-0.267-4.601-0.399-6.8c-1.834-23.467-10.267-43.767-25.301-60.9c-17.133-19.467-37.767-29.2-61.899-29.2
	c-24.2,0-44.817,9.733-61.85,29.2c-15.733,17.934-24.217,39.3-25.45,64.1c0,1.233-0.066,2.434-0.2,3.601h-40
	c0-1.167,0.066-2.367,0.2-3.601c0.633-37.833,12.767-70.25,36.4-97.25c24.4-27.8,53.883-41.7,88.45-41.7
	c34.566,0,64.033,13.9,88.4,41.7c23,26.267,35.149,57.617,36.449,94.051C324.95,333.6,325,335.866,325,338.2z M142.05,374.35
	c0.3-18.166,6.117-33.733,17.45-46.699c11.733-13.334,25.883-20,42.45-20c16.6,0,30.75,6.666,42.45,20
	c11.066,12.6,16.899,27.649,17.5,45.149c0.066,1.066,0.1,2.15,0.1,3.25h-16.8c-0.066-1.1-0.134-2.184-0.2-3.25
	c-0.866-11.267-4.917-21.017-12.15-29.25c-8.199-9.333-18.1-14-29.699-14c-11.634,0-21.534,4.667-29.7,14
	c-7.567,8.634-11.633,18.9-12.2,30.8c0,0.601-0.033,1.167-0.1,1.7h-19.2C141.95,375.517,141.983,374.95,142.05,374.35z"/>
</svg>
