<svg xmlns="http://www.w3.org/2000/svg" width="400" height="400" viewBox="0 0 400 400"><g fill-rule="evenodd" clip-rule="evenodd"><path fill="#333" d="M367.85 102.25c-.333 11.333-6.366 17-18.1 17H165.5c-11.767 0-17.833-5.667-18.2-17V55.7c0-5.434 1.25-9.667 3.75-12.7 2.967-3.633 7.784-5.45 14.45-5.45h184.25c12.066 0 18.1 6.05 18.1 18.15v46.55zM255.75 329.2c-.333 11.333-6.366 17-18.1 17H53.4c-11.767 0-17.833-5.667-18.2-17v-46.55c0-5.434 1.25-9.667 3.75-12.7 2.966-3.634 7.783-5.45 14.45-5.45h184.25c12.066 0 18.1 6.05 18.1 18.15v46.55z"/><path fill="#ccc" d="M367.85 102.25v17c0 12.1-6.033 18.15-18.1 18.15H165.5c-12.133 0-18.2-6.05-18.2-18.15v-17c.367 11.333 6.434 17 18.2 17h184.25c11.733 0 17.767-5.667 18.1-17zM255.75 329.2v17c0 12.1-6.033 18.15-18.1 18.15H53.4c-12.133 0-18.2-6.05-18.2-18.15v-17c.367 11.333 6.433 17 18.2 17h184.25c11.734 0 17.767-5.667 18.1-17z"/><path fill="#fff" d="M227.95 183h33v33h-33z"/><path fill="none" stroke="#ccc" stroke-width="5" stroke-linecap="round" stroke-linejoin="round" stroke-miterlimit="3" d="M367.85 102.25V55.7c0-12.1-6.033-18.15-18.1-18.15H165.5c-6.667 0-11.483 1.817-14.45 5.45-2.5 3.033-3.75 7.267-3.75 12.7v46.55c.367 11.333 6.434 17 18.2 17h184.25c11.733 0 17.767-5.667 18.1-17zm-220.55 0v17c0 12.1 6.067 18.15 18.2 18.15h184.25c12.066 0 18.1-6.05 18.1-18.15v-17M255.75 329.2v-46.55c0-12.1-6.033-18.15-18.1-18.15H53.4c-6.667 0-11.483 1.816-14.45 5.45-2.5 3.033-3.75 7.267-3.75 12.7v46.55c.367 11.333 6.433 17 18.2 17h184.25c11.734 0 17.767-5.667 18.1-17zm-220.55 0v17c0 12.1 6.066 18.15 18.2 18.15h184.25c12.066 0 18.1-6.05 18.1-18.15v-17"/></g></svg>