<svg xmlns="http://www.w3.org/2000/svg" width="400" height="400" viewBox="0 0 400 400"><path fill-rule="evenodd" clip-rule="evenodd" fill="#616161" d="M180.374 33.172c1.84-4.71 5.115-7.063 9.824-7.063h43.858c4.71 0 6.143 2.353 4.302 7.062L106.143 370.937c-1.84 4.71-5.116 7.063-9.825 7.063H52.524c-4.708 0-6.143-2.354-4.302-7.063L180.374 33.172zm116.163 0c1.84-4.71 5.115-7.063 9.823-7.063h43.795c4.708 0 6.143 2.353 4.302 7.062L222.305 370.937c-1.84 4.71-5.116 7.063-9.824 7.063h-43.857c-4.708 0-6.143-2.354-4.302-7.063L296.538 33.172z"/></svg>