<svg xmlns="http://www.w3.org/2000/svg" width="43" height="43" viewBox="0 0 43 43"><g fill="none" fill-rule="evenodd"><g><path d="M16.2 1.24C21.62-.15 27.61.66 32.39 3.61c6.02 3.6 9.95 10.41 10.05 17.42.22 7.08-3.47 14.1-9.4 17.95-6.6 4.44-15.73 4.61-22.47.39C3.7 35.27-.31 27 .72 19.06 1.55 10.67 8.03 3.27 16.2 1.24z" id="Shape" fill="#FFF"/><path d="M15.37 4.67c10.24-4.1 22.8 3.47 23.86 14.45 1.65 9.88-6.55 19.92-16.56 20.21-9.52.95-18.72-7.12-18.99-16.68-.71-7.74 4.39-15.42 11.69-17.98z" id="Shape" fill="#df7065"/><path d="M16.4 20.44c4.59-3.75 9.08-7.63 13.77-11.27-2.46 3.78-4.99 7.51-7.45 11.29-2.11.01-4.22.01-6.32-.02zM20.28 22.53c2.12 0 4.23 0 6.34.03-4.62 3.73-9.09 7.64-13.79 11.27 2.46-3.78 4.99-7.52 7.45-11.3z" fill="#FFF"/></g></g></svg>