<svg xmlns="http://www.w3.org/2000/svg" width="400" height="400" viewBox="0 0 400 400"><g fill-rule="evenodd" clip-rule="evenodd"><path fill="#A3A5A8" d="M378 146.95c14.667 14.667 22 32.35 22 53.05s-7.333 38.366-22 53c-14.667 14.667-32.333 22-53 22-20.7 0-38.384-7.333-53.05-22-14.634-14.634-21.95-32.3-21.95-53s7.316-38.383 21.95-53.05C286.616 132.317 304.3 125 325 125c20.667 0 38.333 7.317 53 21.95z"/><path fill="#B3D675" d="M275 75c0 20.7-7.333 38.383-22 53.05-14.634 14.633-32.3 21.95-53 21.95s-38.383-7.317-53.05-21.95C132.317 113.383 125 95.7 125 75c0-20.667 7.317-38.333 21.95-53C161.617 7.333 179.3 0 200 0s38.366 7.333 53 22c14.667 14.667 22 32.333 22 53z"/><path fill="#53A0D8" d="M75 125c20.667 0 38.333 7.317 53 21.95 14.667 14.667 22 32.35 22 53.05s-7.333 38.366-22 53c-14.667 14.667-32.333 22-53 22-20.7 0-38.383-7.333-53.05-22C7.317 238.366 0 220.7 0 200s7.317-38.383 21.95-53.05C36.617 132.317 54.3 125 75 125z"/><path fill="#EA5F4E" d="M125 325c0-20.667 7.317-38.333 21.95-53 14.667-14.667 32.35-22 53.05-22s38.366 7.333 53 22c14.667 14.667 22 32.333 22 53 0 20.7-7.333 38.384-22 53.05-14.634 14.634-32.3 21.95-53 21.95s-38.383-7.316-53.05-21.95C132.317 363.384 125 345.7 125 325z"/></g></svg>