<svg xmlns="http://www.w3.org/2000/svg" width="400" height="400" viewBox="0 0 400 400"><g fill-rule="evenodd" clip-rule="evenodd"><path fill="#9F4230" d="M360.65 92.85c10.233 10.566 15.35 23.333 15.35 38.3v141.7c0 14.967-5.116 27.717-15.35 38.25-10.233 10.6-22.584 15.9-37.05 15.9H78.4c-14.467 0-26.833-5.3-37.1-15.9C31.1 300.566 26 287.816 26 272.85v-141.7c0-14.967 5.1-27.733 15.3-38.3C51.567 82.283 63.933 77 78.4 77h245.2c14.466 0 26.817 5.283 37.05 15.85zm-111.9 110L174 160.05v85.85l74.75-43.05z"/><path fill="#fff" d="M248.75 202.85L174 245.9v-85.85z"/></g></svg>