<?xml version="1.0" encoding="utf-8"?>
<!-- Generator: Adobe Illustrator 16.0.0, SVG Export Plug-In . SVG Version: 6.00 Build 0)  -->
<!DOCTYPE svg PUBLIC "-//W3C//DTD SVG 1.1//EN" "http://www.w3.org/Graphics/SVG/1.1/DTD/svg11.dtd">
<svg version="1.1" id="Layer_1" xmlns="http://www.w3.org/2000/svg" xmlns:xlink="http://www.w3.org/1999/xlink" x="0px" y="0px"
	 width="400px" height="400px" viewBox="0 0 400 400" enable-background="new 0 0 400 400" xml:space="preserve">
<g>
	<path fill="#FFFFFF" d="M156.073,59.05c-37.057,12.68-68.633,40.411-86.221,75.504c-6.135,12.106-10.553,24.95-13.252,38.284
		c-6.708,33.048-2.045,68.306,13.17,98.41c9.898,19.633,24.132,37.139,41.311,50.8c16.278,12.925,35.175,22.577,55.299,27.895
		c25.359,6.79,52.354,6.627,77.876,0.817c23.069-5.316,44.909-16.359,62.335-32.394c18.405-16.933,31.575-39.184,38.528-63.151
		c7.608-26.096,8.59-53.99,3.845-80.822c-47.69,0-95.464,0-143.155,0c0,19.796,0,39.593,0,59.39c27.648,0,55.299,0,82.948,0
		c-3.19,18.979-14.479,36.32-30.431,47.036c-10.062,6.79-21.596,11.127-33.539,13.253c-11.944,2.045-24.377,2.289-36.321-0.082
		c-12.189-2.454-23.723-7.526-33.866-14.644c-16.198-11.37-28.55-27.977-34.849-46.709c-6.463-19.061-6.544-40.248,0-59.226
		c4.582-13.416,12.107-25.769,22.087-35.911c12.27-12.598,28.222-21.596,45.482-25.278c14.724-3.108,30.267-2.536,44.664,1.8
		c12.271,3.681,23.56,10.471,32.803,19.306c9.326-9.326,18.651-18.651,27.977-27.977c4.909-4.989,10.062-9.816,14.807-14.97
		c-14.151-13.089-30.839-23.641-48.999-30.349C225.852,47.925,189.04,47.68,156.073,59.05z"/>
	<g>
		<path fill="#EA4335" d="M156.073,59.05c32.885-11.371,69.778-11.125,102.5,0.899c18.16,6.708,34.766,17.179,48.999,30.349
			c-4.744,5.154-9.897,9.98-14.807,14.971c-9.325,9.325-18.65,18.651-27.977,27.977c-9.243-8.835-20.532-15.543-32.803-19.306
			c-14.397-4.335-29.94-4.99-44.664-1.799c-17.179,3.681-33.13,12.679-45.482,25.277c-9.98,10.062-17.506,22.496-22.087,35.911
			c-16.606-12.925-33.212-25.768-49.9-38.692C87.44,99.461,119.017,71.73,156.073,59.05z"/>
	</g>
	<g>
		<path fill="#FBBC05" d="M56.682,172.757c2.7-13.252,7.118-26.177,13.252-38.284c16.606,12.925,33.212,25.768,49.9,38.693
			c-6.545,19.06-6.545,40.248,0,59.225c-16.606,12.926-33.212,25.851-49.818,38.693C54.637,241.062,49.975,205.805,56.682,172.757z"
			/>
	</g>
	<g>
		<path fill="#4285F4" d="M205.81,174.312c47.691,0,95.465,0,143.155,0c4.745,26.749,3.682,54.645-3.845,80.821
			c-6.953,23.968-20.123,46.22-38.528,63.151c-16.116-12.516-32.231-25.032-48.346-37.547c15.95-10.716,27.24-28.059,30.43-47.037
			c-27.648,0-55.298,0-82.948,0C205.81,213.904,205.81,194.106,205.81,174.312z"/>
	</g>
	<g>
		<path fill="#34A853" d="M69.853,271.166c16.605-12.844,33.212-25.768,49.818-38.693c6.381,18.732,18.652,35.34,34.848,46.71
			c10.144,7.117,21.76,12.189,33.866,14.644c11.944,2.454,24.296,2.126,36.321,0.081c11.943-2.127,23.478-6.462,33.54-13.253
			c16.114,12.518,32.229,25.033,48.346,37.549c-17.426,16.114-39.266,27.076-62.335,32.394c-25.522,5.809-52.517,5.973-77.876-0.817
			c-20.124-5.318-39.021-14.888-55.299-27.896C93.984,308.305,79.75,290.798,69.853,271.166z"/>
	</g>
</g>
</svg>
