<?xml version="1.0" encoding="utf-8"?>
<!-- Generator: Adobe Illustrator 16.0.0, SVG Export Plug-In . SVG Version: 6.00 Build 0)  -->
<!DOCTYPE svg PUBLIC "-//W3C//DTD SVG 1.1//EN" "http://www.w3.org/Graphics/SVG/1.1/DTD/svg11.dtd">
<svg version="1.1" id="Layer_1" xmlns="http://www.w3.org/2000/svg" xmlns:xlink="http://www.w3.org/1999/xlink" x="0px" y="0px"
	 width="120px" height="120px" viewBox="0 0 120 120" enable-background="new 0 0 120 120" xml:space="preserve">
<rect fill="#323333" width="120" height="120"/>
<g id="Livello_x0020_1" transform="translate(1.856116,0)">
	<path id="path10" fill="#28AAE2" d="M90.541,41.133c-2.349,1.037-4.868,1.74-7.512,2.054
		c2.701-1.616,4.773-4.183,5.743-7.236c-2.529,1.503-5.325,2.587-8.301,3.176C78.086,36.588,74.692,35,70.927,35
		c-7.217,0-13.073,5.857-13.073,13.073c0,1.027,0.113,2.025,0.343,2.976c-10.868-0.542-20.5-5.752-26.945-13.662
		c-1.122,1.93-1.769,4.173-1.769,6.569c0,4.535,2.31,8.538,5.818,10.877c-2.139-0.066-4.155-0.656-5.923-1.636
		c0,0.057,0,0.104,0,0.162c0,6.332,4.506,11.619,10.486,12.817c-1.093,0.294-2.253,0.456-3.441,0.456
		c-0.846,0-1.664-0.086-2.462-0.238c1.664,5.191,6.494,8.975,12.208,9.08c-4.478,3.509-10.107,5.601-16.24,5.601
		c-1.055,0-2.091-0.067-3.118-0.181c5.781,3.708,12.655,5.875,20.042,5.875c24.044,0,37.194-19.918,37.194-37.194
		c0-0.57-0.01-1.132-0.038-1.692c2.558-1.844,4.772-4.145,6.522-6.77L90.541,41.133z"/>
</g>
</svg>
