<?xml version="1.0" encoding="utf-8"?>
<!-- Generator: Adobe Illustrator 16.0.0, SVG Export Plug-In . SVG Version: 6.00 Build 0)  -->
<!DOCTYPE svg PUBLIC "-//W3C//DTD SVG 1.1//EN" "http://www.w3.org/Graphics/SVG/1.1/DTD/svg11.dtd">
<svg version="1.1" id="Layer_1" xmlns="http://www.w3.org/2000/svg" xmlns:xlink="http://www.w3.org/1999/xlink" x="0px" y="0px"
	 width="512px" height="512px" viewBox="0 0 512 512" enable-background="new 0 0 512 512" xml:space="preserve">
<rect fill="#DC4A38" width="512" height="512"/>
<g>
	<path fill="#FFFFFF" d="M322.5,82.1c11.8,9.6,36.4,29.7,36.4,68c0,37.3-21.5,54.9-43.101,71.5c-6.7,6.6-14.399,13.6-14.399,24.7
		c0,11.101,7.699,17.2,13.3,21.7l18.5,14.1c22.6,18.601,43.1,35.801,43.1,70.601c0,47.399-46.7,95.2-135,95.2
		c-74.4,0.1-110.3-34.7-110.3-72c0-18.101,9.2-43.801,39.5-61.5c31.8-19.101,75-21.7,98-23.2c-7.2-9.101-15.4-18.7-15.4-34.3
		c0-8.601,2.6-13.601,5.1-19.7c-5.6,0.5-11.3,1-16.4,1c-54.4,0-85.2-39.8-85.2-79.1c0-23.2,10.8-48.9,32.9-67.5
		C218.8,68,253.7,64,281.4,64H387.1l-32.8,18.1H322.5z M286,305.9c-4.1-0.5-6.7-0.5-11.8-0.5c-4.601,0-32.3,1-53.9,8
		c-11.3,4-44.1,16.1-44.1,51.899s35.4,61.5,90.3,61.5c49.3,0,75.4-23.2,75.4-54.399C341.9,346.7,325,333.1,286,305.9 M300.9,210.1
		c11.8-11.6,12.8-27.7,12.8-36.8c0-36.3-22.101-92.7-64.7-92.7c-13.3,0-27.7,6.5-35.9,16.6c-8.7,10.6-11.3,24.2-11.3,37.3
		c0,33.8,20,89.7,64.2,89.7C278.8,224.3,292.6,218.2,300.9,210.1"/>
</g>
</svg>
