<?xml version="1.0" encoding="utf-8"?>
<!-- Generator: Adobe Illustrator 16.0.0, SVG Export Plug-In . SVG Version: 6.00 Build 0)  -->
<!DOCTYPE svg PUBLIC "-//W3C//DTD SVG 1.1//EN" "http://www.w3.org/Graphics/SVG/1.1/DTD/svg11.dtd">
<svg version="1.1" id="Selected_Items" xmlns="http://www.w3.org/2000/svg" xmlns:xlink="http://www.w3.org/1999/xlink" x="0px"
	 y="0px" width="550px" height="400px" viewBox="0 0 550 400" enable-background="new 0 0 550 400" xml:space="preserve">
<path fill-rule="evenodd" clip-rule="evenodd" fill="#FFFFFF44" d="M423,196.5c0,39.366-13.917,72.95-41.75,100.75
	C353.45,325.083,319.866,339,280.5,339c-39.367,0-72.967-13.917-100.8-41.75c-27.8-27.8-41.7-61.384-41.7-100.75
	c0-39.367,13.9-72.967,41.7-100.8C207.533,67.9,241.133,54,280.5,54c39.366,0,72.95,13.9,100.75,41.7
	C409.083,123.533,423,157.133,423,196.5z M229.4,114.35V282.4L377,198.35L229.4,114.35z"/>
</svg>
