<svg width="512" height="512" viewBox="0 0 512 512" fill="none" xmlns="http://www.w3.org/2000/svg">
<path d="M512 512H0V0H512V512Z" fill="black"/>
<path d="M190.244 278.471C198.559 253.166 206.539 228.873 215.694 201.014C224.694 228.847 232.458 252.859 240.74 278.471H190.244ZM181.213 151.703C155.766 221.269 130.498 290.344 104.91 360.296H162.756C167.246 347.75 171.773 335.096 176.136 322.905H255.402C259.656 335.378 263.843 347.658 267.974 359.777H326.763C301.24 289.244 276.248 220.174 251.474 151.703H181.213Z" fill="white"/>
<path d="M382.355 291.795H356.704V317.446H336.414V291.795H310.763V271.506H336.414V245.855H356.704V271.506H382.355V291.795ZM346.559 221.12C313.129 221.12 286.028 248.22 286.028 281.651C286.028 315.081 313.129 342.182 346.559 342.182C379.989 342.182 407.089 315.081 407.089 281.651C407.089 248.22 379.989 221.12 346.559 221.12Z" fill="#FFCE00"/>
</svg>
