<?xml version="1.0" encoding="utf-8"?>
<!-- Generator: Adobe Illustrator 16.0.0, SVG Export Plug-In . SVG Version: 6.00 Build 0)  -->
<!DOCTYPE svg PUBLIC "-//W3C//DTD SVG 1.1//EN" "http://www.w3.org/Graphics/SVG/1.1/DTD/svg11.dtd">
<svg version="1.1" id="Layer_1" xmlns="http://www.w3.org/2000/svg" xmlns:xlink="http://www.w3.org/1999/xlink" x="0px" y="0px"
	 width="120px" height="120px" viewBox="0 0 120 120" enable-background="new 0 0 120 120" xml:space="preserve">
<g>
	<path fill-rule="evenodd" clip-rule="evenodd" fill="#191717" d="M60,0C26.867,0,0,27.542,0,61.518
		c0,27.182,17.191,50.24,41.032,58.377c2.998,0.568,4.1-1.336,4.1-2.961c0-1.467-0.056-6.313-0.082-11.453
		c-16.692,3.721-20.214-7.258-20.214-7.258c-2.729-7.111-6.662-9.002-6.662-9.002c-5.444-3.818,0.411-3.74,0.411-3.74
		c6.024,0.434,9.197,6.341,9.197,6.341c5.351,9.403,14.036,6.686,17.46,5.114c0.539-3.977,2.093-6.691,3.81-8.229
		c-13.327-1.553-27.337-6.83-27.337-30.402c0-6.716,2.344-12.204,6.183-16.513c-0.623-1.55-2.677-7.807,0.581-16.281
		c0,0,5.039-1.652,16.504,6.307c4.786-1.364,9.919-2.047,15.018-2.071c5.099,0.024,10.235,0.707,15.03,2.071
		c11.454-7.959,16.483-6.307,16.483-6.307c3.266,8.474,1.213,14.731,0.59,16.281c3.847,4.309,6.176,9.796,6.176,16.513
		c0,23.629-14.037,28.831-27.398,30.355c2.152,1.908,4.07,5.652,4.07,11.391c0,8.231-0.07,14.857-0.07,16.883
		c0,1.638,1.081,3.556,4.122,2.953C102.83,111.742,120,88.689,120,61.518C120,27.542,93.137,0,60,0z"/>
	<path fill="#191717" d="M22.725,88.328c-0.132,0.306-0.602,0.397-1.028,0.187c-0.436-0.201-0.679-0.616-0.539-0.923
		c0.129-0.314,0.599-0.402,1.033-0.193C22.627,87.6,22.875,88.021,22.725,88.328L22.725,88.328z M21.987,87.767"/>
	<path fill="#191717" d="M25.156,91.107c-0.286,0.271-0.846,0.145-1.226-0.285c-0.393-0.43-0.466-1.002-0.176-1.279
		c0.295-0.271,0.837-0.143,1.23,0.285C25.378,90.262,25.455,90.83,25.156,91.107L25.156,91.107z M24.583,90.477"/>
	<path fill="#191717" d="M27.521,94.648c-0.368,0.264-0.97,0.018-1.341-0.529c-0.368-0.547-0.368-1.203,0.009-1.466
		c0.372-0.263,0.964-0.026,1.341,0.515C27.897,93.726,27.897,94.383,27.521,94.648L27.521,94.648z M27.521,94.648"/>
	<path fill="#191717" d="M30.762,98.073c-0.329,0.372-1.03,0.271-1.542-0.237c-0.525-0.495-0.67-1.199-0.341-1.571
		c0.333-0.372,1.038-0.267,1.554,0.237C30.954,96.996,31.112,97.705,30.762,98.073L30.762,98.073z M30.762,98.073"/>
	<path fill="#191717" d="M35.233,100.061c-0.146,0.482-0.82,0.701-1.5,0.496c-0.679-0.211-1.123-0.776-0.986-1.262
		c0.141-0.486,0.819-0.715,1.503-0.496C34.93,99.01,35.374,99.569,35.233,100.061L35.233,100.061z M35.233,100.061"/>
	<path fill="#191717" d="M40.144,100.429c0.016,0.508-0.56,0.927-1.273,0.938c-0.717,0.016-1.298-0.394-1.306-0.894
		c0-0.514,0.563-0.93,1.281-0.941C39.559,99.518,40.144,99.926,40.144,100.429L40.144,100.429z M40.144,100.429"/>
	<path fill="#191717" d="M44.713,99.631c0.085,0.496-0.41,1.003-1.119,1.139c-0.697,0.131-1.341-0.176-1.43-0.665
		c-0.086-0.507,0.418-1.017,1.114-1.147C43.987,98.831,44.623,99.127,44.713,99.631L44.713,99.631z M44.713,99.631"/>
</g>
</svg>
