<?xml version="1.0" encoding="utf-8"?>
<!-- Generator: Adobe Illustrator 16.0.0, SVG Export Plug-In . SVG Version: 6.00 Build 0)  -->
<!DOCTYPE svg PUBLIC "-//W3C//DTD SVG 1.1//EN" "http://www.w3.org/Graphics/SVG/1.1/DTD/svg11.dtd">
<svg version="1.1" id="Layer_1" xmlns="http://www.w3.org/2000/svg" xmlns:xlink="http://www.w3.org/1999/xlink" x="0px" y="0px"
	 width="34px" height="34px" viewBox="0 0 34 34" enable-background="new 0 0 34 34" xml:space="preserve">
<rect fill="#1187C9" width="34" height="34"/>
<path fill="#FFFFFF" d="M12.228,24.108H8.914V13.501h3.313V24.108z M10.486,12.174h-0.024c-1.199,0-1.977-0.811-1.977-1.837
	c0-1.048,0.801-1.842,2.024-1.842c1.222,0,1.974,0.792,1.998,1.839C12.507,11.361,11.731,12.174,10.486,12.174z M25.485,24.108
	h-3.757v-5.489c0-1.437-0.587-2.417-1.88-2.417c-0.989,0-1.538,0.661-1.794,1.299c-0.096,0.228-0.081,0.546-0.081,0.867v5.739H14.25
	c0,0,0.048-9.723,0-10.606h3.722v1.665c0.22-0.729,1.409-1.767,3.308-1.767c2.354,0,4.205,1.526,4.205,4.812V24.108z"/>
</svg>
