<?xml version="1.0" encoding="utf-8"?>
<!-- Generator: Adobe Illustrator 16.0.0, SVG Export Plug-In . SVG Version: 6.00 Build 0)  -->
<!DOCTYPE svg PUBLIC "-//W3C//DTD SVG 1.1//EN" "http://www.w3.org/Graphics/SVG/1.1/DTD/svg11.dtd">
<svg version="1.1" id="Selected_Items" xmlns="http://www.w3.org/2000/svg" xmlns:xlink="http://www.w3.org/1999/xlink" x="0px"
	 y="0px" width="400px" height="400px" viewBox="0 0 400 400" enable-background="new 0 0 400 400" xml:space="preserve">
<path fill-rule="evenodd" clip-rule="evenodd" fill="#5B5B5B" d="M302.725,112.35C324.241,137.114,335,166.331,335,200
	c0,37.267-13.184,69.083-39.55,95.45c-2.622,2.621-5.297,5.113-8.025,7.475c-19.676,17.02-42.15,27.27-67.425,30.75V195.1
	L302.725,112.35z M127.7,292.75c11.7,9.7,23.433,15.95,35.2,18.75v-35.45l-0.5-0.2l-37.55,14.5
	C125.783,291.184,126.733,291.983,127.7,292.75z M65,200c0-33.683,10.767-62.916,32.3-87.7L180,195v138.675
	c-28.78-3.964-53.931-16.705-75.45-38.225C78.183,269.083,65,237.267,65,200z M272.05,292.75c0.934-0.781,1.867-1.581,2.8-2.4
	l-38-14v35.15C248.628,308.691,260.361,302.441,272.05,292.75z"/>
</svg>
