<?xml version="1.0" encoding="utf-8"?>
<!-- Generator: Adobe Illustrator 16.0.0, SVG Export Plug-In . SVG Version: 6.00 Build 0)  -->
<!DOCTYPE svg PUBLIC "-//W3C//DTD SVG 1.1//EN" "http://www.w3.org/Graphics/SVG/1.1/DTD/svg11.dtd">
<svg version="1.1"
	 id="svg3353" sodipodi:docname="shutter icon.svg" inkscape:version="0.91 r13725" xmlns:dc="http://purl.org/dc/elements/1.1/" xmlns:inkscape="http://www.inkscape.org/namespaces/inkscape" xmlns:sodipodi="http://sodipodi.sourceforge.net/DTD/sodipodi-0.dtd" xmlns:cc="http://creativecommons.org/ns#" xmlns:rdf="http://www.w3.org/1999/02/22-rdf-syntax-ns#" xmlns:svg="http://www.w3.org/2000/svg"
	 xmlns="http://www.w3.org/2000/svg" xmlns:xlink="http://www.w3.org/1999/xlink" x="0px" y="0px" width="625px" height="625px"
	 viewBox="0 0 625 625" enable-background="new 0 0 625 625" xml:space="preserve">
<sodipodi:namedview  units="px" id="base" inkscape:showpageshadow="false" inkscape:pageopacity="0.0" inkscape:pageshadow="2" inkscape:document-units="px" inkscape:current-layer="layer1" inkscape:zoom="0.36701389" inkscape:cx="562.26352" borderlayer="false" borderopacity="1.0" pagecolor="#ffffff" bordercolor="#666666" showgrid="false" inkscape:cy="204.15563">
	</sodipodi:namedview>
<g id="g5572" transform="matrix(1.25,0,0,-1.25,1434.9361,737.57739)" inkscape:label="shutter icon">
	<g>
		<defs>
			<rect id="SVGID_1_" x="-1210.449" y="27.562" width="625" height="625"/>
		</defs>
		<clipPath id="SVGID_2_">
			<use xlink:href="#SVGID_1_"  overflow="visible"/>
		</clipPath>
		<path id="path5584" inkscape:connector-curvature="0" clip-path="url(#SVGID_2_)" fill="#FFFFFF" d="M-871.639,414.062h-265.17
			c24.73,79.94,88.49,142.72,169.02,166.1L-871.639,414.062z"/>
		<path id="path5588" inkscape:connector-curvature="0" clip-path="url(#SVGID_2_)" fill="#FFFFFF" d="M-950.199,399.062
			l-130.72-229.34c-41.58,44.65-67.03,104.52-67.03,170.34c0,20.33,2.44,40.08,7.02,59H-950.199z"/>
		<path id="path5592" inkscape:connector-curvature="0" clip-path="url(#SVGID_2_)" fill="#FFFFFF" d="M-723.009,518.632
			l-96.53-164.62l-133.16,230.02c17.62,3.94,35.94,6.03,54.75,6.03C-829.839,590.062-768.099,562.812-723.009,518.632"/>
		<path id="path5596" inkscape:connector-curvature="0" clip-path="url(#SVGID_2_)" fill="#FFFFFF" d="M-660.049,263.062
			c-25.65-79.3-89.83-141.25-170.47-163.79l-93.32,163.79H-660.049z"/>
		<path id="path5600" inkscape:connector-curvature="0" clip-path="url(#SVGID_2_)" fill="#FFFFFF" d="M-845.669,95.552
			c-16.859-3.59-34.35-5.49-52.28-5.49c-66.65,0-127.2,26.08-172.01,68.59l94.19,165.25L-845.669,95.552z"/>
		<path id="path5604" inkscape:connector-curvature="0" clip-path="url(#SVGID_2_)" fill="#FFFFFF" d="M-647.949,340.062
			c0-21.4-2.69-42.17-7.75-62h-190.98l134.459,229.33C-672.269,463.082-647.949,404.412-647.949,340.062"/>
	</g>
</g>
</svg>
