<?xml version="1.0" encoding="utf-8"?>
<!-- Generator: Adobe Illustrator 16.0.0, SVG Export Plug-In . SVG Version: 6.00 Build 0)  -->
<!DOCTYPE svg PUBLIC "-//W3C//DTD SVG 1.1//EN" "http://www.w3.org/Graphics/SVG/1.1/DTD/svg11.dtd">
<svg version="1.1" id="Layer_1" xmlns="http://www.w3.org/2000/svg" xmlns:xlink="http://www.w3.org/1999/xlink" x="0px" y="0px"
	 width="1286.304px" height="1265.272px" viewBox="0 0 1286.304 1265.272" enable-background="new 0 0 1286.304 1265.272"
	 xml:space="preserve">
<g>
	<path fill="#FFFFFF" d="M675.498,491.124c14.709,1.377,23.402-13.927,25.48-24.029c2.38-8.52-4.158-5.746-6.833-4.16
		c0,0-18.919,15.153-30.013,15.451c-5.646-0.297-5.274,3.046-3.269,5.646C664.059,488.192,667.178,490.049,675.498,491.124z"/>
	<path fill="#FFFFFF" d="M1267.052,421.926c-225.835,36.848-320.162-37.373-376.787-70.127
		c-121.237-70.128-171.458,18.424-155.707,89.146c15.154,57.944-53.488,67.751-57.054,73.693
		c-8.098,6.737-12.777,2.675-13.074,25.257c-0.297,16.047-19.972,21.099-19.972,21.099s-22.286-5.052-22.583-21.099
		c-0.297-22.582-4.978-18.52-13.075-25.257c-3.565-5.942-72.208-15.749-57.053-73.693c15.749-70.722-34.469-159.273-155.707-89.146
		c-56.625,32.754-150.953,106.975-376.788,70.127c-19.154-3.565-24.231,7.132-14.263,24.961
		c16.64,33.281,116.78,200.578,369.655,68.939c19.612-11.886,28.527-5.943,9.509,8.32c-19.018,14.264-85.975,62.204-194.931,55.864
		c-17.036-2.377-32.488,0.397-14.263,22.583c40.017,47.546,169.576,116.842,272.983,17.793c13.867-18.981,21.792-12.644,7.528,7.564
		c-16.243,22.582-34.47,39.617-69.335,51.109c-28.129,8.715-23.376,19.812-9.113,26.943
		c36.849,19.808,125.992,38.035,164.027-39.225c8.323-26.148,12.58-3.607,9.457,5.168c-9.509,35.361-23.319,83.184-51.058,118.447
		c-20.207,28.527,11.886,43.979,30.903,43.979c19.018,0,47.544-13.074,53.487-28.527c10.305-21.004,14.631-11.102,11.098,3.957
		c-0.038,11.887-25.362,61.416,15.051,105.396c18.423,27.039,34.47,23.771,34.47,23.771s13.434,3.268,31.856-23.771
		c40.414-43.98,15.088-93.51,15.051-105.396c-3.532-15.059,0.795-24.961,11.1-3.957c5.943,15.453,34.47,28.527,53.487,28.527
		c19.017,0,51.11-15.451,30.904-43.979c-27.74-35.264-41.549-83.086-51.058-118.447c-3.125-8.775,1.133-31.316,9.455-5.168
		c38.036,77.26,127.18,59.032,164.028,39.225c14.263-7.132,19.015-18.229-9.111-26.943c-34.869-11.492-53.094-28.527-69.339-51.109
		c-14.263-20.208-6.338-26.546,7.53-7.564c103.406,99.049,232.967,29.753,272.982-17.793c18.226-22.186,2.773-24.96-14.263-22.583
		c-108.955,6.34-175.914-41.601-194.933-55.864c-19.018-14.264-10.102-20.206,9.51-8.32
		c252.876,131.639,353.017-35.658,369.655-68.939C1291.283,429.058,1286.207,418.361,1267.052,421.926z"/>
	<path fill="#FFFFFF" d="M610.806,491.124c8.32-1.074,11.44-2.932,14.634-7.092c2.006-2.601,2.377-5.943-3.268-5.646
		c-11.095-0.298-30.013-15.451-30.013-15.451c-2.676-1.586-9.212-4.359-6.834,4.16C587.405,477.197,596.096,492.5,610.806,491.124z"
		/>
</g>
</svg>
