<?xml version="1.0" encoding="utf-8"?>
<!-- Generator: Adobe Illustrator 16.0.0, SVG Export Plug-In . SVG Version: 6.00 Build 0)  -->
<!DOCTYPE svg PUBLIC "-//W3C//DTD SVG 1.1//EN" "http://www.w3.org/Graphics/SVG/1.1/DTD/svg11.dtd">
<svg version="1.1" id="Selected_Items" xmlns="http://www.w3.org/2000/svg" xmlns:xlink="http://www.w3.org/1999/xlink" x="0px"
	 y="0px" width="400px" height="400px" viewBox="0 0 400 400" enable-background="new 0 0 400 400" xml:space="preserve">
<g>
	<path fill-rule="evenodd" clip-rule="evenodd" fill="#9F4230" d="M360.65,92.85c10.233,10.566,15.35,23.333,15.35,38.3v141.7
		c0,14.967-5.116,27.717-15.35,38.25C350.417,321.7,338.066,327,323.6,327H78.4c-14.467,0-26.833-5.3-37.1-15.9
		C31.1,300.566,26,287.816,26,272.85v-141.7c0-14.967,5.1-27.733,15.3-38.3C51.567,82.283,63.933,77,78.4,77h245.2
		C338.066,77,350.417,82.283,360.65,92.85z M248.75,202.85L174,160.05V245.9L248.75,202.85z"/>
	<polygon fill-rule="evenodd" clip-rule="evenodd" fill="#FFFFFF" points="248.75,202.85 174,245.9 174,160.05 	"/>
</g>
</svg>
