<?xml version="1.0" encoding="utf-8"?>
<!-- Generator: Adobe Illustrator 16.0.0, SVG Export Plug-In . SVG Version: 6.00 Build 0)  -->
<!DOCTYPE svg PUBLIC "-//W3C//DTD SVG 1.1//EN" "http://www.w3.org/Graphics/SVG/1.1/DTD/svg11.dtd">
<svg version="1.1" id="Layer_1" xmlns="http://www.w3.org/2000/svg" xmlns:xlink="http://www.w3.org/1999/xlink" x="0px" y="0px"
	 width="34px" height="34px" viewBox="0 0 34 34" enable-background="new 0 0 34 34" xml:space="preserve">
 <rect fill="#FFFFFF" width="34" height="34"/>
<polygon fill="#DE7926" points="21.962,15.837 17.66,15.837 17.66,11.477 15.882,11.477 15.882,15.837 11.58,15.837 11.58,17.64
	15.882,17.64 15.882,22 17.66,22 17.66,17.64 21.962,17.64 "/>
<polygon fill="#263F81" points="28.903,23.176 25.219,23.176 25.219,19.442 23.696,19.442 23.696,23.176 20.012,23.176
	20.012,24.719 23.696,24.719 23.696,28.453 25.219,28.453 25.219,24.719 28.903,24.719 "/>
<polygon fill="#5F869C" points="28.903,8.699 25.219,8.699 25.219,4.965 23.696,4.965 23.696,8.699 20.012,8.699 20.012,10.243
	23.696,10.243 23.696,13.977 25.219,13.977 25.219,10.243 28.903,10.243 "/>
<polygon fill="#5F869C" points="19.725,4.53 17.229,4.53 17.229,2 16.198,2 16.198,4.53 13.702,4.53 13.702,5.575 16.198,5.575
	16.198,8.104 17.229,8.104 17.229,5.575 19.725,5.575 "/>
<polygon fill="#5F869C" points="7.621,16.25 5.292,16.25 5.292,13.89 4.329,13.89 4.329,16.25 2,16.25 2,17.226 4.329,17.226
	4.329,19.587 5.292,19.587 5.292,17.226 7.621,17.226 "/>
<polygon fill="#BD2533" points="13.644,23.334 9.746,23.334 9.746,19.384 8.135,19.384 8.135,23.334 4.237,23.334 4.237,24.968
	8.135,24.968 8.135,28.919 9.746,28.919 9.746,24.968 13.644,24.968 "/>
<polygon fill="#5C6494" points="20.069,27.948 17.24,27.948 17.24,25.082 16.071,25.082 16.071,27.948 13.243,27.948 13.243,29.133
	16.071,29.133 16.071,32 17.24,32 17.24,29.133 20.069,29.133 "/>
<polygon fill="#5C6494" points="32,16.32 29.171,16.32 29.171,13.453 28.003,13.453 28.003,16.32 25.174,16.32 25.174,17.505
	28.003,17.505 28.003,20.373 29.171,20.373 29.171,17.505 32,17.505 "/>
<polygon fill="#E29325" points="13.444,8.735 9.724,8.735 9.724,4.965 8.186,4.965 8.186,8.735 4.466,8.735 4.466,10.294
	8.186,10.294 8.186,14.064 9.724,14.064 9.724,10.294 13.444,10.294 "/>
</svg>
