<?xml version="1.0" encoding="utf-8"?>
<!-- Generator: Adobe Illustrator 16.0.0, SVG Export Plug-In . SVG Version: 6.00 Build 0)  -->
<!DOCTYPE svg PUBLIC "-//W3C//DTD SVG 1.1//EN" "http://www.w3.org/Graphics/SVG/1.1/DTD/svg11.dtd">
<svg version="1.1" id="Layer_1" xmlns="http://www.w3.org/2000/svg" xmlns:xlink="http://www.w3.org/1999/xlink" x="0px" y="0px"
	 width="120px" height="120px" viewBox="0 0 120 120" enable-background="new 0 0 120 120" xml:space="preserve">
<g>
	<path fill-rule="evenodd" clip-rule="evenodd" fill="#FFFFFF" d="M21.149,62.102c3.203,13.828,11.269,38.798,40.465,39.178
		c28.038,0.509,38.412-19.975,44.684-39.564h-0.126C100.666,78.233,28.192,77.979,21.149,62.102z"/>
	<g>
		<path fill-rule="evenodd" clip-rule="evenodd" fill="#FFFFFF" d="M43.557,67.587c4.339-3.208,6.668-6.382,7.119-9.702
			c0.598-4.416-2.233-8.032-4.73-11.217c-3.965-5.062-5.839-7.925-1.632-12.711l-0.527,0.446c2.479-1.541,4.49-2.042,5.658-1.407
			c1.171,0.635,1.933,2.678,1.988,5.336l0.002,0.149l0.023,0.151c0.056,0.381,0.046,0.876-0.551,1.319
			c-0.678,0.502-1.74,0.644-2.417,0.322c-0.28-0.134-0.606-0.391-0.642-1.199l-4.735,0.213c0.107,2.386,1.325,4.308,3.341,5.266
			c2.259,1.075,5.183,0.756,7.274-0.792c1.881-1.394,2.764-3.519,2.416-5.831l0.026,0.303c-0.093-4.554-1.68-7.896-4.467-9.406
			c-2.81-1.525-6.317-1.001-10.421,1.554l-0.296,0.183l-0.231,0.263c-7.004,7.962-2.111,14.206,1.46,18.764
			c2.105,2.685,4.094,5.223,3.763,7.655c-0.265,1.96-2.028,4.157-5.24,6.532L43.557,67.587z"/>
	</g>
	<g>
		<path fill-rule="evenodd" clip-rule="evenodd" fill="#FFFFFF" d="M56.959,36.488c8.642,5.046,5.728,12.145,1.019,20.901
			c-2.416,4.492-4.916,9.14-1,11.379l2.354-4.115c0.2,0.116,0.344,0.389,0.354,0.528c-0.068-0.84,1.398-3.562,2.466-5.545
			c3.919-7.288,10.476-19.487-2.803-27.242L56.959,36.488z"/>
	</g>
	<g>
		<path fill-rule="evenodd" clip-rule="evenodd" fill="#FFFFFF" d="M94.134,7.295c-0.893-5.759-7.042,0.902-11.522,3.589
			c-4.486,3.453-8.325,6.144-13.062,9.602c-4.482,3.455-23.174,16.515-24.068,20.488L94.134,7.295z"/>
	</g>
	<g>
		<path fill-rule="evenodd" clip-rule="evenodd" fill="#FFFFFF" d="M105.274,34.056c1.537-0.894,1.663-2.046,0.515-3.583
			c-7.686-0.383-57.62,7.56-59.414,10.758C65.962,38.924,85.553,36.488,105.274,34.056z"/>
	</g>
	<polygon fill-rule="evenodd" clip-rule="evenodd" fill="#FFFFFF" points="42.793,114.596 80.818,114.98 76.852,104.866 
		46.632,104.866 	"/>
</g>
</svg>
