<?xml version="1.0" encoding="utf-8"?>
<!-- Generator: Adobe Illustrator 16.0.0, SVG Export Plug-In . SVG Version: 6.00 Build 0)  -->
<!DOCTYPE svg PUBLIC "-//W3C//DTD SVG 1.1//EN" "http://www.w3.org/Graphics/SVG/1.1/DTD/svg11.dtd">
<svg version="1.1" id="Selected_Items" xmlns="http://www.w3.org/2000/svg" xmlns:xlink="http://www.w3.org/1999/xlink" x="0px"
	 y="0px" width="400px" height="400px" viewBox="0 0 400 400" enable-background="new 0 0 400 400" xml:space="preserve">
<g>
	<path fill-rule="evenodd" clip-rule="evenodd" fill="#D23934" d="M263.15,294.15c-4.494-2.074-8.711-4.866-12.65-8.375
		c-2.641-2.369-5.157-5.061-7.55-8.075c-15.8-14.566-23.2-41-22.2-79.3c0.789-33.865,16.939-57.931,48.45-72.2
		c1.767-0.794,3.583-1.561,5.45-2.3c2.848-0.585,5.614-1.061,8.3-1.425c38.206-5.199,59.489,12.042,63.85,51.725
		c18.033,51.899,15.75,86.733-6.85,104.5c-2.033,1.3-4.084,2.517-6.15,3.649c-22.434,13.101-41.783,18.301-58.05,15.601
		C271.332,297.246,267.132,295.979,263.15,294.15z"/>
	<path fill-rule="evenodd" clip-rule="evenodd" fill="#B3D675" d="M282.95,122.475c-2.686,0.364-5.452,0.839-8.3,1.425
		c-1.867,0.739-3.684,1.506-5.45,2.3c-31.511,14.269-47.661,38.335-48.45,72.2c-1,38.3,6.4,64.734,22.2,79.3
		c2.393,3.015,4.909,5.706,7.55,8.075c3.939,3.509,8.156,6.301,12.65,8.375c-10.381,20.31-25.014,34.509-43.9,42.6
		c-88.433,27.566-145.367,11.667-170.8-47.7c-21.167-33.1-21.817-83.283-1.95-150.55c18.433-62.8,61.95-98.15,130.55-106.05
		C245.521,36.511,280.82,66.519,282.95,122.475z"/>
</g>
</svg>
