<?xml version="1.0" encoding="utf-8"?>
<!-- Generator: Adobe Illustrator 16.0.0, SVG Export Plug-In . SVG Version: 6.00 Build 0)  -->
<!DOCTYPE svg PUBLIC "-//W3C//DTD SVG 1.1//EN" "http://www.w3.org/Graphics/SVG/1.1/DTD/svg11.dtd">
<svg version="1.1" id="Selected_Items" xmlns="http://www.w3.org/2000/svg" xmlns:xlink="http://www.w3.org/1999/xlink" x="0px"
	 y="0px" width="400px" height="400px" viewBox="0 0 400 400" enable-background="new 0 0 400 400" xml:space="preserve">
<g>
	<path fill-rule="evenodd" clip-rule="evenodd" fill="#333333" d="M367.85,102.25c-0.333,11.333-6.366,17-18.1,17H165.5
		c-11.767,0-17.833-5.667-18.2-17V55.7c0-5.434,1.25-9.667,3.75-12.7c2.967-3.633,7.784-5.45,14.45-5.45h184.25
		c12.066,0,18.1,6.05,18.1,18.15V102.25z M255.75,329.2c-0.333,11.333-6.366,17-18.1,17H53.4c-11.767,0-17.833-5.667-18.2-17v-46.55
		c0-5.434,1.25-9.667,3.75-12.7c2.966-3.634,7.783-5.45,14.45-5.45h184.25c12.066,0,18.1,6.05,18.1,18.15V329.2z"/>
	<path fill-rule="evenodd" clip-rule="evenodd" fill="#CCCCCC" d="M367.85,102.25v17c0,12.1-6.033,18.15-18.1,18.15H165.5
		c-12.133,0-18.2-6.05-18.2-18.15v-17c0.367,11.333,6.434,17,18.2,17h184.25C361.483,119.25,367.517,113.583,367.85,102.25z
		 M255.75,329.2v17c0,12.1-6.033,18.149-18.1,18.149H53.4c-12.133,0-18.2-6.05-18.2-18.149v-17c0.367,11.333,6.433,17,18.2,17
		h184.25C249.384,346.2,255.417,340.533,255.75,329.2z"/>
	<rect x="227.95" y="183" fill-rule="evenodd" clip-rule="evenodd" fill="#FFFFFF" width="33" height="33"/>
	
		<path fill-rule="evenodd" clip-rule="evenodd" fill="none" stroke="#CCCCCC" stroke-width="5" stroke-linecap="round" stroke-linejoin="round" stroke-miterlimit="3" d="
		M367.85,102.25V55.7c0-12.1-6.033-18.15-18.1-18.15H165.5c-6.667,0-11.483,1.817-14.45,5.45c-2.5,3.033-3.75,7.267-3.75,12.7v46.55
		c0.367,11.333,6.434,17,18.2,17h184.25C361.483,119.25,367.517,113.583,367.85,102.25z M147.3,102.25v17
		c0,12.1,6.067,18.15,18.2,18.15h184.25c12.066,0,18.1-6.05,18.1-18.15v-17 M255.75,329.2v-46.55c0-12.101-6.033-18.15-18.1-18.15
		H53.4c-6.667,0-11.483,1.816-14.45,5.45c-2.5,3.033-3.75,7.267-3.75,12.7v46.55c0.367,11.333,6.433,17,18.2,17h184.25
		C249.384,346.2,255.417,340.533,255.75,329.2z M35.2,329.2v17c0,12.1,6.066,18.149,18.2,18.149h184.25
		c12.066,0,18.1-6.05,18.1-18.149v-17"/>
</g>
</svg>
