<?xml version="1.0" encoding="utf-8"?>
<!-- Generator: Adobe Illustrator 16.0.0, SVG Export Plug-In . SVG Version: 6.00 Build 0)  -->
<!DOCTYPE svg PUBLIC "-//W3C//DTD SVG 1.1//EN" "http://www.w3.org/Graphics/SVG/1.1/DTD/svg11.dtd">
<svg version="1.1" id="Selected_Items" xmlns="http://www.w3.org/2000/svg" xmlns:xlink="http://www.w3.org/1999/xlink" x="0px"
	 y="0px" width="400px" height="400px" viewBox="0 0 400 400" enable-background="new 0 0 400 400" xml:space="preserve">
<g>
	<path fill-rule="evenodd" clip-rule="evenodd" fill="#A3A5A8" d="M378,146.95c14.667,14.667,22,32.35,22,53.05s-7.333,38.366-22,53
		c-14.667,14.667-32.333,22-53,22c-20.7,0-38.384-7.333-53.05-22C257.316,238.366,250,220.7,250,200s7.316-38.383,21.95-53.05
		C286.616,132.317,304.3,125,325,125C345.667,125,363.333,132.317,378,146.95z"/>
	<path fill-rule="evenodd" clip-rule="evenodd" fill="#B3D675" d="M275,75c0,20.7-7.333,38.383-22,53.05
		C238.366,142.683,220.7,150,200,150s-38.383-7.317-53.05-21.95C132.317,113.383,125,95.7,125,75c0-20.667,7.317-38.333,21.95-53
		C161.617,7.333,179.3,0,200,0s38.366,7.333,53,22C267.667,36.667,275,54.333,275,75z"/>
	<path fill-rule="evenodd" clip-rule="evenodd" fill="#53A0D8" d="M75,125c20.667,0,38.333,7.317,53,21.95
		c14.667,14.667,22,32.35,22,53.05s-7.333,38.366-22,53c-14.667,14.667-32.333,22-53,22c-20.7,0-38.383-7.333-53.05-22
		C7.317,238.366,0,220.7,0,200s7.317-38.383,21.95-53.05C36.617,132.317,54.3,125,75,125z"/>
	<path fill-rule="evenodd" clip-rule="evenodd" fill="#EA5F4E" d="M125,325c0-20.667,7.317-38.333,21.95-53
		c14.667-14.667,32.35-22,53.05-22s38.366,7.333,53,22c14.667,14.667,22,32.333,22,53c0,20.7-7.333,38.384-22,53.05
		C238.366,392.684,220.7,400,200,400s-38.383-7.316-53.05-21.95C132.317,363.384,125,345.7,125,325z"/>
</g>
</svg>
