<?xml version="1.0" encoding="utf-8"?>
<!-- Generator: Adobe Illustrator 16.0.0, SVG Export Plug-In . SVG Version: 6.00 Build 0)  -->
<!DOCTYPE svg PUBLIC "-//W3C//DTD SVG 1.1//EN" "http://www.w3.org/Graphics/SVG/1.1/DTD/svg11.dtd">
<svg version="1.1" id="Selected_Items" xmlns="http://www.w3.org/2000/svg" xmlns:xlink="http://www.w3.org/1999/xlink" x="0px"
	 y="0px" width="550px" height="400px" viewBox="0 0 550 400" enable-background="new 0 0 550 400" xml:space="preserve">
<rect fill="#4058BC" width="550" height="400"/>
<g id="thumbnail">
	<g id="Layer_3_1_">
		<path fill-rule="evenodd" clip-rule="evenodd" fill="#8ED0C2" fill-opacity="0.502" d="M486.291,282.341
			c7.447-0.386,14.77-0.482,21.961-0.288c-5.7-2.316-9.556-6.329-11.564-12.049c-0.778-2.186,0.259-3.632,3.108-4.337
			c0.714-0.194,1.299-0.32,1.75-0.389c-0.192-0.771-0.192-1.638,0-2.602c0.585-3.855,2.819-5.943,6.706-6.266
			c8.68,4.436,10.528,7.682,5.54,9.737c5.375,1.348,9.133,3.983,11.271,7.905c1.229-3.086,2.43-6.266,3.597-9.546
			c0.776-2.183,1.49-4.337,2.14-6.458c-11.274-25.124-18.726-50.699-22.352-76.725c-0.713,6.875-3.4,14.105-8.066,21.688
			c-1.814,3.086-4.018,3.054-6.608-0.098c-8.032-10.343-16.229-21.14-24.587-32.387c-3.045-4.049-5.087-7.775-6.121-11.179
			c-0.518-0.388-1.004-0.741-1.457-1.063c-16.066-10.474-30.937-22.071-44.604-34.794c-4.471-4.115-6.739-7.711-6.804-10.798
			c-8.032-1.799-15.741-4.175-23.129-7.133c-1.879,2.572-3.951,5.142-6.218,7.711c-8.423,9.256-19.081,14.298-31.972,15.133
			c-10.172,0.644-19.305-0.705-27.405-4.048c-0.58,0.386-1.229,0.804-1.943,1.255c-1.23,0.834-2.523,1.091-3.887,0.771
			c-9.976,18.827-23.03,37.173-39.161,55.036c-0.066,0.129-0.162,0.226-0.291,0.29c-4.082,19.022-6.286,37.658-6.608,55.906
			c-0.065,0.517-0.099,0.998-0.099,1.445c0,4.949,1.036,10.025,3.111,15.232c5.117,12.98,11.109,24.579,17.978,34.795
			c8.68,13.109,18.818,24.003,30.415,32.679c18.27,3.981,34.855,11.309,49.756,21.976c5.962,1.221,12.147,2.09,18.561,2.604
			C411.399,311.965,443.726,290.63,486.291,282.341z M438.673,162.723c0.517-1.545,1.686-2.38,3.499-2.508
			c9.328,3.472,14.737,7.97,16.229,13.494c4.726,3.663,4.372,6.94-1.07,9.832c-0.388,0.838-0.874,1.802-1.458,2.892
			c-1.166,1.927-2.949,2.121-5.345,0.578C439.839,180.073,435.887,171.974,438.673,162.723z M425.165,273.762
			c1.748,0,3.401,0.098,4.956,0.292c0.778-1.994,3.015-4.018,6.706-6.075c17.296,4.371,19.824,9.93,7.578,16.678
			c-0.58,0.256-1.165,0.481-1.748,0.672c-0.583,1.543-1.523,3.246-2.818,5.111c-1.424,1.99-3.564,2.504-6.413,1.54
			c-5.248-1.733-9.363-4.626-12.343-8.675C417.325,278.291,418.688,275.111,425.165,273.762z M368.802,288.8
			c-2.396,1.67-5.02,1.446-7.87-0.676c-7.968-5.91-7.387-10.924,1.75-15.034C376.802,276.751,378.845,281.988,368.802,288.8z
			 M351.507,185.564c15.156,2.702,18.463,7.229,9.91,13.593c7.84,4.306,8.325,9.833,1.458,16.58
			c-1.298,1.284-3.014,1.445-5.151,0.482c-13.604-5.978-17.233-12.149-10.883-18.508C342.434,194.049,343.99,190,351.507,185.564z
			 M397.858,319.933c-1.556,13.816-10.56,18.12-27.015,12.919c-46.971-15.103-69.807-44.821-68.511-89.161
			c0.064-3.474,2.333-5.271,6.802-5.401c14.771,12.982,29.024,28.823,42.759,47.521c6.737,9.062,15.775,13.913,27.112,14.557
			C392.936,301.267,399.218,307.789,397.858,319.933z"/>
		<path fill-rule="evenodd" clip-rule="evenodd" fill="#8ED0C2" fill-opacity="0.502" d="M75.521,289.088
			c-0.194-1.992-0.422-3.95-0.681-5.878c-2.981-21.72-10.204-41.93-21.67-60.631c-0.389-0.643-0.811-1.284-1.264-1.928
			c-3.951-5.849-9.004-10.989-15.159-15.424C25.233,196.983,12.978,190.386,0,185.389v12.6c15.94,7.267,27.843,17.705,35.679,31.337
			c17.945,14.265,20.829,31.393,8.648,51.375c-1.685,2.765-3.659,2.699-5.927-0.192c-7.322-9.317-14.771-19.052-22.351-29.207
			c-2.722-3.662-4.567-7.035-5.539-10.121c-0.39-0.319-0.811-0.607-1.263-0.864c-3.136-2.055-6.211-4.165-9.247-6.313v12.092
			c3.429,2.339,5.545,5.006,6.331,8.005c4.275,3.342,3.952,6.329-0.972,8.963c-0.325,0.77-0.745,1.64-1.264,2.604
			c-0.913,1.526-2.278,1.831-4.095,0.917v21.362c1.129,1.729,2.088,3.606,2.832,5.673C8.283,308.581,7.323,322.541,0,335.51v10.06
			c0.797,1.204,0.801,2.473,0,3.806V400h2.671c13.563-14.481,30.359-24.852,50.401-31.102c3.368-4.561,6.415-9.478,9.135-14.748
			c-11.273-0.449-18.333-4.753-21.185-12.916c-0.713-1.992,0.194-3.308,2.721-3.952c0.647-0.193,1.167-0.319,1.555-0.386
			c-0.13-0.704-0.13-1.476,0-2.312c0.583-3.535,2.624-5.43,6.122-5.689c7.838,4.05,9.491,6.974,4.957,8.775
			c4.859,1.22,8.26,3.63,10.204,7.229c1.102-2.829,2.202-5.721,3.304-8.675c1.943-5.594,3.432-11.215,4.47-16.868
			C76.168,309.396,76.557,299.305,75.521,289.088z"/>
		<path fill-rule="evenodd" clip-rule="evenodd" fill="#8ED0C2" fill-opacity="0.502" d="M492.022,119.537
			c-2.787-1.991-5.604-3.886-8.453-5.685c-6.545,1.284-13.313,2.151-20.31,2.603c-0.713,0.063-1.427,0.127-2.14,0.19
			c12.83,7.521,22.74,17.351,29.736,29.498c8.032,6.425,13.347,13.365,15.938,20.818c-0.972-11.308-1.231-22.715-0.775-34.219
			C502.131,127.86,497.466,123.459,492.022,119.537z"/>
		<path fill-rule="evenodd" clip-rule="evenodd" fill="#8ED0C2" fill-opacity="0.502" d="M325.462,63.053
			c1.686,0.322,2.946,0.708,3.788,1.159c-4.209-4.757-8.26-9.834-12.146-15.229c-1.491-2.058-2.916-4.082-4.274-6.075l-0.099-0.096
			c-0.646-0.386-1.132-0.738-1.459-1.058c-0.518,0.19-1.198,0.416-2.038,0.672c-0.194,0-0.356,0.033-0.485,0.099
			c-2.854,3.405-5.086,7.422-6.707,12.049c-0.776,2.055-1.424,4.208-1.944,6.458c-1.489,6.811-2.3,13.495-2.429,20.049v0.094
			c0,1.671,0.356,3.374,1.07,5.108c5.182,13.111,12.926,22.106,23.224,26.989c1.362,0.644,2.756,1.223,4.18,1.738
			c6.866,2.376,14.737,3.147,23.614,2.311c12.892-1.157,22.674-6.232,29.347-15.229c-18.141-8.546-34.368-20.755-48.685-36.628
			c0.062,0.644-0.454,1.382-1.555,2.217c2.657,1.479,2.815,3.342,0.485,5.59c-0.455,0.452-1.036,0.515-1.75,0.193
			c-4.6-2.055-5.83-4.145-3.693-6.265C322.416,65.914,322.934,64.532,325.462,63.053z M350.437,92.934
			c0.583,0,1.132,0.033,1.649,0.096c0.259-0.706,1.007-1.38,2.236-2.024c5.896,1.415,6.769,3.28,2.623,5.591
			c-0.193,0.065-0.387,0.129-0.58,0.193c-0.262,0.578-0.584,1.159-0.973,1.735c-0.52,0.708-1.232,0.901-2.139,0.581
			c-1.812-0.581-3.24-1.575-4.276-2.99C347.748,94.446,348.234,93.385,350.437,92.934z M329.25,92.647
			c4.795,1.284,5.475,3.084,2.042,5.396c-0.777,0.515-1.651,0.419-2.623-0.289C325.947,95.762,326.142,94.06,329.25,92.647z
			 M325.655,96.984c1.229,1.669,2.688,2.923,4.374,3.757c1.423,0.708,3.014,1.094,4.762,1.157c4.728,0.322,6.864,2.539,6.413,6.653
			c-0.583,4.69-3.63,6.136-9.133,4.337c-3.111-0.964-5.896-2.122-8.359-3.473c-10.3-5.717-15.256-14.618-14.869-26.697
			c0-1.157,0.779-1.768,2.335-1.834C316.165,85.256,320.99,90.62,325.655,96.984z"/>
		<path fill-rule="evenodd" clip-rule="evenodd" fill="#8ED0C2" fill-opacity="0.502" d="M326.627,389.43
			c0.322-1.027,1.102-1.574,2.333-1.636c6.22,2.31,9.814,5.302,10.786,8.963c1.479,1.138,2.209,2.218,2.212,3.243h8.955
			c-1.321-1.77-2.646-3.559-3.976-5.365c-2.01-2.697-3.369-5.171-4.082-7.423c-0.323-0.256-0.646-0.481-0.973-0.674
			c-10.689-7.003-20.601-14.748-29.733-23.229c-5.896-5.462-6.059-9.573-0.485-12.337c1.229-0.644,2.72-1.222,4.467-1.734
			c18.66,3.982,32.46,11.791,41.399,23.422c1.424,1.8,2.722,3.728,3.887,5.783c3.561,2.828,6.347,5.848,8.357,9.06
			c1.426-4.367,3.077-8.74,4.955-13.109c-0.128-0.32-0.292-0.608-0.485-0.867c-2.979-4.884-6.996-9.157-12.048-12.821
			c-19.501-14.006-41.757-21.619-66.763-22.844c-3.369-0.189-6.802-0.256-10.301-0.189c-2.074,0-4.145,0.062-6.219,0.189
			c-9.006,2.38-17.006,5.688-24.004,9.932c-3.434,1.989-6.639,4.237-9.619,6.747c8.488,2.31,9.133,5.718,1.943,10.215
			c-1.165,0.771-2.43,0.771-3.79,0c-1.232-0.706-2.204-1.38-2.916-2.021c-1.038,0.449-2.367,0.864-3.984,1.252
			c-0.327,0.063-0.617,0.127-0.875,0.193c-4.663,5.654-8.488,12.049-11.466,19.178c-2.245,5.131-4.025,10.686-5.369,16.645h109.485
			C326.031,396.771,325.464,393.249,326.627,389.43z"/>
		<path fill-rule="evenodd" clip-rule="evenodd" fill="#8ED0C2" fill-opacity="0.502" d="M241.791,256.703
			c0.778,0.642,1.556,1.316,2.334,2.022c-2.334-7.323-4.05-14.716-5.151-22.17c-7.258-4.82-14.835-8.802-22.74-11.953
			c-4.147,1.737-8.357,3.278-12.633,4.63C221.482,234.371,234.212,243.528,241.791,256.703z"/>
		<path fill-rule="evenodd" clip-rule="evenodd" fill="#8ED0C2" fill-opacity="0.502" d="M122.653,368.803
			c19.564,4.051,37.607,11.18,54.127,21.4c6.282,0.382,12.925,0.257,19.921-0.388c0.582-0.063,1.165-0.126,1.75-0.194
			c1.488-4.56,3.303-9.188,5.44-13.877c13.54-29.881,35.86-48.582,66.957-56.1c0.388-2.827,0.615-5.655,0.68-8.48
			c-0.52-0.708-1.036-1.417-1.556-2.123c-6.544-9.062-12.113-18.22-16.714-27.47c-0.649,4.111-2.365,8.448-5.151,13.012
			c-1.229,2.056-2.688,2.022-4.373-0.099c-5.377-6.874-10.849-14.071-16.421-21.589c-2.008-2.698-3.371-5.173-4.081-7.423
			c-0.326-0.257-0.649-0.482-0.972-0.676c-10.689-7.004-20.603-14.747-29.738-23.229c-3.367-3.149-4.859-5.848-4.47-8.099
			c-9.655,2.188-19.726,3.599-30.222,4.243c-8.681,0.515-17.137,0.676-25.365,0.482c-0.387,1.413-2.008,3.02-4.859,4.819
			c-1.166,0.771-2.43,0.771-3.789,0c-1.229-0.708-2.202-1.382-2.915-2.026c-1.036,0.453-2.365,0.868-3.986,1.256
			c-0.323,0.062-0.615,0.126-0.873,0.19c-6.416,7.777-11.274,16.998-14.577,27.663c2.851,20.95,1.423,41.226-4.276,60.825
			C103.734,346.666,112.222,359.293,122.653,368.803z M207.002,267.688c0.324-1.026,1.103-1.572,2.333-1.638
			c6.218,2.313,9.814,5.301,10.786,8.967c3.174,2.439,2.948,4.625-0.681,6.554c-0.258,0.575-0.581,1.219-0.972,1.927
			c-0.777,1.284-1.976,1.414-3.595,0.385C207.746,279.255,205.121,273.859,207.002,267.688z M197.966,341.717
			c1.166,0,2.266,0.065,3.303,0.191c0.52-1.346,2.008-2.697,4.472-4.048c11.528,2.893,13.214,6.588,5.052,11.086
			c-0.389,0.191-0.778,0.354-1.166,0.481c-0.391,1.029-1.006,2.154-1.849,3.373c-0.972,1.35-2.395,1.706-4.274,1.062
			c-3.5-1.157-6.252-3.085-8.26-5.782C192.781,344.738,193.688,342.617,197.966,341.717z M160.454,351.741
			c-1.621,1.094-3.367,0.933-5.246-0.481c-5.314-3.92-4.924-7.262,1.166-10.025C165.765,343.679,167.127,347.18,160.454,351.741z
			 M148.892,282.919c10.105,1.8,12.307,4.819,6.607,9.061c5.248,2.893,5.57,6.588,0.971,11.085
			c-0.841,0.838-1.975,0.932-3.401,0.288c-9.07-3.982-11.5-8.093-7.288-12.337C142.865,288.574,143.899,285.876,148.892,282.919z
			 M116.142,321.666c0.062-2.31,1.589-3.499,4.569-3.564c9.846,8.61,19.336,19.149,28.472,31.618
			c4.47,6.039,10.494,9.283,18.074,9.732c9.266,0.578,13.441,4.916,12.537,13.013c-1.039,9.189-7.03,12.05-17.979,8.581
			C130.522,371.02,115.301,351.227,116.142,321.666z"/>
		<path fill-rule="evenodd" clip-rule="evenodd" fill="#8ED0C2" fill-opacity="0.502" d="M292.615,48.402
			c2.527-5.654,5.702-10.504,9.523-14.553c-0.13-1.928-0.292-3.825-0.485-5.689c-0.193-1.862-0.389-3.726-0.585-5.589
			c-3.686-7.44-6.698-14.965-9.063-22.57h-26.111c-1.726,5.336-4.308,10.833-7.777,16.498c-2.331,3.856-5.086,3.792-8.26-0.193
			c-4.176-5.33-8.381-10.769-12.612-16.305H86.803c3.722,3.093,2.496,6.952-3.702,11.582c9.912,5.462,10.495,12.435,1.749,20.916
			c-1.554,1.608-3.692,1.801-6.413,0.581c-17.104-7.521-21.704-15.295-13.8-23.328C61.018,6.709,60.653,3.458,63.5,0H0v133.657
			c35.374,46.976,86.944,68.107,154.722,63.378c2.006-0.126,4.081-0.288,6.218-0.482c0.389-0.064,0.778-0.094,1.165-0.094
			c33.494-3.214,61.287-13.595,83.379-31.137c15.224-12.078,27.76-27.567,37.606-46.457c-5.439-0.193-10.204-1.063-14.284-2.603
			c-7.581-2.829-12.667-7.97-15.256-15.422c-0.972-2.765,0.323-4.564,3.887-5.401c0.841-0.255,1.555-0.449,2.137-0.578
			c-0.193-0.964-0.193-2.055,0-3.278c0.778-4.883,3.595-7.485,8.454-7.807c10.948,5.591,13.282,9.639,6.998,12.145
			c2.85,0.774,5.377,1.801,7.579,3.084c2.851,1.8,5.054,4.114,6.609,6.94c1.229-3.019,2.429-6.104,3.594-9.251
			C284.97,81.529,284.906,65.432,292.615,48.402z M84.753,104.696c17.751,4.625,20.31,11.245,7.677,19.854
			c-3.046,2.057-6.35,1.768-9.913-0.865C72.475,116.229,73.222,109.898,84.753,104.696z M128.97,163.781
			c-1.944,17.35-13.282,22.748-34.013,16.192C35.809,161.018,7.044,123.586,8.663,67.68c0.129-4.369,3.013-6.619,8.649-6.748
			c18.592,16.324,36.539,36.246,53.836,59.762c8.422,11.44,19.791,17.576,34.108,18.413
			C122.813,140.198,130.718,148.424,128.97,163.781z M187.567,119.249c-0.714,0.388-1.425,0.708-2.139,0.964
			c-0.777,1.928-1.944,4.048-3.496,6.364c-1.881,2.569-4.601,3.243-8.166,2.021c-6.607-2.184-11.791-5.847-15.548-10.989
			c-4.664-6.295-2.948-10.311,5.151-12.049c2.202,0,4.276,0.13,6.22,0.386c0.972-2.504,3.79-5.043,8.455-7.615
			C199.811,103.795,202.984,110.767,187.567,119.249z"/>
		<path fill-rule="evenodd" clip-rule="evenodd" fill="#8ED0C2" fill-opacity="0.502" d="M550,358.661
			c-3.254-2.797-6.454-5.646-9.583-8.56c-10.883-10.021-8.909-17.09,5.93-21.206c1.239,0.265,2.442,0.559,3.653,0.846v-13.267
			c-5.936-1.368-11.979-2.466-18.135-3.289c-9.977-1.284-20.213-1.862-30.706-1.733c-3.629,0-7.259,0.094-10.885,0.287
			c-20.149,5.334-37.059,13.721-50.728,25.157c4.794,1.286,7.938,2.828,9.427,4.63c2.462,2.892,0.291,6.456-6.512,10.696
			c-1.749,1.158-3.629,1.158-5.635,0c-1.882-1.027-3.369-2.021-4.471-2.985c-1.556,0.642-3.531,1.252-5.929,1.828
			c-0.519,0.13-0.972,0.227-1.358,0.29c-6.674,8.163-12.279,17.416-16.813,27.763c-1.165,2.634-2.235,5.332-3.207,8.094
			c-1.526,4.114-2.862,8.385-4.038,12.788H550V358.661z"/>
		<path fill-rule="evenodd" clip-rule="evenodd" fill="#8ED0C2" fill-opacity="0.502" d="M122.749,393.383
			c-15.871-3.791-32.781-5.207-50.726-4.243c-2.786,0.708-5.508,1.514-8.163,2.41c-6.918,2.322-13.299,5.149-19.175,8.45h98.779
			C136.764,397.313,129.861,395.101,122.749,393.383z"/>
		<path fill-rule="evenodd" clip-rule="evenodd" fill="#8ED0C2" fill-opacity="0.502" d="M536.823,11.196
			c-0.714-2.185,0.292-3.599,3.012-4.241c0.647-0.193,1.197-0.321,1.653-0.386c-0.134-0.771-0.134-1.606,0-2.506
			c0.264-1.728,0.876-3.069,1.801-4.063H374.966c7.322,8.028,14.501,16.83,21.532,26.425c6.543,8.804,15.32,13.528,26.335,14.171
			c13.476,0.835,19.533,7.164,18.171,18.989c-0.129,1.413-0.356,2.729-0.68,3.95c-2.722,10.217-11.209,13.045-25.459,8.482
			c-11.727-3.79-21.899-8.482-30.515-14.071c-4.925-3.28-9.328-6.813-13.216-10.603c-1.298-1.801-2.786-3.406-4.472-4.819
			c-2.461-2.829-4.663-5.816-6.606-8.964c-2.397-3.855-4.405-7.938-6.026-12.243c-2.547-6.58-4.223-13.685-5.028-21.317h-27.688
			c4.472,10.685,9.577,20.365,15.323,29.029c9.263,14.008,20.149,25.415,32.651,34.219c2.333,1.669,4.729,3.245,7.191,4.721
			c3.629,2.121,7.385,4.081,11.272,5.882c21.897,10.022,47.843,13.654,77.839,10.89c6.866-0.642,13.441-1.639,19.728-2.986
			c10.754-2.443,20.601-6.01,29.54-10.702c13.94-7.358,25.648-17.517,35.142-30.449V23.501
			C543.398,21.416,539.002,17.32,536.823,11.196z M412.921,29.413c-2.332,1.608-4.893,1.383-7.677-0.672
			c-7.712-5.72-7.127-10.604,1.748-14.652C420.661,17.687,422.639,22.795,412.921,29.413z M486.097,25.367
			c-0.52,0.256-1.07,0.482-1.653,0.672c-0.583,1.479-1.489,3.118-2.72,4.918c-1.427,1.928-3.499,2.441-6.222,1.54
			c-5.053-1.668-9.036-4.464-11.951-8.385c-3.629-4.883-2.333-7.968,3.887-9.253c1.748,0,3.368,0.064,4.859,0.193
			c0.711-1.928,2.882-3.888,6.512-5.881C495.586,13.413,498.017,18.811,486.097,25.367z"/>
		<path fill-rule="evenodd" clip-rule="evenodd" fill="#F3FAF8" fill-opacity="0.502" d="M155.206,351.262
			c1.881,1.414,3.629,1.573,5.248,0.481c6.673-4.563,5.311-8.064-4.081-10.509C150.284,344,149.894,347.342,155.206,351.262z"/>
		<path fill-rule="evenodd" clip-rule="evenodd" fill="#F3FAF8" fill-opacity="0.502" d="M185.428,120.213
			c0.713-0.257,1.427-0.579,2.139-0.963c15.417-8.482,12.244-15.456-9.524-20.917c-4.664,2.57-7.481,5.108-8.453,7.615
			c-1.813,4.241,1.36,8.545,9.522,12.916C181.313,120.086,183.42,120.535,185.428,120.213z"/>
		<path fill-rule="evenodd" clip-rule="evenodd" fill="#F3FAF8" fill-opacity="0.502" d="M148.89,282.919
			c-4.99,2.959-6.024,5.657-3.109,8.099c0.972,0.77,2.397,1.54,4.276,2.312c1.49,0.58,2.752,0.516,3.789-0.192
			c0.649-0.386,1.2-0.771,1.653-1.155C161.198,287.738,158.997,284.72,148.89,282.919z"/>
		<path fill-rule="evenodd" clip-rule="evenodd" fill="#F3FAF8" fill-opacity="0.502" d="M84.752,104.694
			c-11.53,5.205-12.277,11.537-2.235,18.989c3.562,2.636,6.867,2.925,9.913,0.868C105.063,115.939,102.504,109.321,84.752,104.694z"
			/>
		<path fill-rule="evenodd" clip-rule="evenodd" fill="#F3FAF8" fill-opacity="0.502" d="M123.819,243.015
			c1.359,0.772,2.623,0.772,3.789,0c2.851-1.8,4.472-3.404,4.859-4.819c-4.601-0.192-9.133-0.451-13.605-0.772
			c-0.064,1.156,0.617,2.347,2.042,3.565C121.617,241.633,122.589,242.309,123.819,243.015z"/>
		<path fill-rule="evenodd" clip-rule="evenodd" fill="#F3FAF8" fill-opacity="0.502" d="M205.738,337.86
			c-2.462,1.352-3.95,2.7-4.47,4.05c-0.972,2.25,0.713,4.531,5.053,6.844c1.167,0.642,2.27,0.868,3.304,0.674
			c0.39-0.126,0.779-0.288,1.167-0.481C218.954,344.45,217.269,340.753,205.738,337.86z"/>
		<path fill-rule="evenodd" clip-rule="evenodd" fill="#F3FAF8" fill-opacity="0.502" d="M243.734,294.484
			c1.686,2.123,3.144,2.154,4.373,0.099c2.787-4.562,4.504-8.898,5.151-13.012c-3.693-7.584-6.738-15.197-9.135-22.844
			c-0.776-0.708-1.554-1.384-2.332-2.026c-7.579-13.173-20.309-22.33-38.19-27.471c-5.054,1.672-10.236,3.083-15.548,4.241
			c-0.389,2.249,1.103,4.949,4.47,8.097c9.135,8.483,19.046,16.225,29.736,23.229c0.325,0.194,0.647,0.418,0.972,0.677
			c0.713,2.248,2.074,4.721,4.083,7.421C232.885,280.415,238.359,287.612,243.734,294.484z"/>
		<path fill-rule="evenodd" clip-rule="evenodd" fill="#F3FAF8" fill-opacity="0.502" d="M243.248,354.055
			c-5.311,2.764-6.218,5.656-2.72,8.676c0.712,0.642,1.684,1.317,2.916,2.025c1.36,0.771,2.623,0.771,3.79,0
			c7.19-4.499,6.544-7.905-1.943-10.219C244.642,354.346,243.962,354.183,243.248,354.055z"/>
		<path fill-rule="evenodd" clip-rule="evenodd" fill="#F3FAF8" fill-opacity="0.502" d="M0,345.569v3.807
			C0.801,348.043,0.797,346.774,0,345.569z"/>
		<path fill-rule="evenodd" clip-rule="evenodd" fill="#F3FAF8" fill-opacity="0.502" d="M51.421,328.897
			c-3.498,0.256-5.54,2.152-6.122,5.688c-0.13,0.834-0.13,1.604,0,2.312c0.195,1.928,1.522,2.7,3.984,2.315
			c3.174-0.319,5.539-0.835,7.094-1.543C60.912,335.869,59.259,332.947,51.421,328.897z"/>
		<path fill-rule="evenodd" clip-rule="evenodd" fill="#F3FAF8" fill-opacity="0.502" d="M35.678,229.328
			C27.843,215.692,15.939,205.254,0,197.986v36.016c3.036,2.147,6.111,4.258,9.247,6.312c0.453,0.261,0.874,0.549,1.263,0.868
			c0.972,3.086,2.817,6.459,5.539,10.121c7.58,10.153,15.029,19.89,22.351,29.205c2.267,2.892,4.243,2.959,5.927,0.194
			C56.507,260.717,53.624,243.593,35.678,229.328z"/>
		<path fill-rule="evenodd" clip-rule="evenodd" fill="#F3FAF8" fill-opacity="0.502" d="M546.345,328.897
			c-14.835,4.112-16.811,11.182-5.928,21.206c3.129,2.913,6.329,5.761,9.583,8.558v-28.918
			C548.788,329.456,547.584,329.162,546.345,328.897z"/>
		<path fill-rule="evenodd" clip-rule="evenodd" fill="#F3FAF8" fill-opacity="0.502" d="M484.443,26.04
			c0.583-0.192,1.134-0.417,1.651-0.674c11.922-6.556,9.491-11.953-7.288-16.195c-3.628,1.993-5.799,3.953-6.51,5.881
			c-1.426,3.276,1.004,6.618,7.288,10.023C481.333,25.976,482.954,26.296,484.443,26.04z"/>
		<path fill-rule="evenodd" clip-rule="evenodd" fill="#F3FAF8" fill-opacity="0.502" d="M506.794,166.962
			c-2.591-7.456-7.905-14.396-15.938-20.821c-6.996-12.145-16.908-21.977-29.736-29.495c-18.139,0.9-35.114-0.416-50.921-3.952
			c0.064,3.084,2.333,6.683,6.804,10.795c13.668,12.724,28.538,24.324,44.604,34.797c0.453,0.322,0.939,0.675,1.457,1.06
			c1.034,3.407,3.076,7.133,6.121,11.182c8.358,11.247,16.555,22.039,24.587,32.386c2.593,3.147,4.794,3.182,6.608,0.098
			c4.664-7.583,7.354-14.812,8.064-21.688C507.734,176.568,507.184,171.782,506.794,166.962z"/>
		<path fill-rule="evenodd" clip-rule="evenodd" fill="#F3FAF8" fill-opacity="0.502" d="M508.252,256.411
			c-3.887,0.324-6.123,2.41-6.706,6.266c-0.192,0.964-0.192,1.833,0,2.604c0.194,2.122,1.651,2.987,4.373,2.604
			c3.499-0.388,6.124-0.964,7.871-1.735C518.78,264.091,516.934,260.847,508.252,256.411z"/>
		<path fill-rule="evenodd" clip-rule="evenodd" fill="#F3FAF8" fill-opacity="0.502" d="M543.289,0
			c-0.926,0.994-1.538,2.335-1.803,4.063c-0.132,0.9-0.132,1.735,0,2.506c0.195,2.056,1.619,2.892,4.275,2.506
			c1.597-0.183,3.005-0.403,4.238-0.658V0H543.289z"/>
		<path fill-rule="evenodd" clip-rule="evenodd" fill="#F3FAF8" fill-opacity="0.502" d="M64.637,9.75
			c1.879,1.478,4.6,2.923,8.163,4.337c2.788,1.092,5.15,0.996,7.094-0.289c1.23-0.772,2.299-1.511,3.208-2.217
			C89.299,6.952,90.526,3.093,86.804,0H63.5C60.652,3.458,61.018,6.709,64.637,9.75z"/>
		<path fill-rule="evenodd" clip-rule="evenodd" fill="#F3FAF8" fill-opacity="0.502" d="M249.857,16.305
			c3.173,3.984,5.927,4.049,8.26,0.193c3.468-5.663,6.064-11.162,7.791-16.498h-28.663C241.476,5.536,245.681,10.975,249.857,16.305
			z"/>
		<path fill-rule="evenodd" clip-rule="evenodd" fill="#F3FAF8" fill-opacity="0.502" d="M312.73,42.812l0.099,0.096
			c-0.843-1.286-1.653-2.538-2.43-3.759c-0.454,0.835-0.164,1.703,0.872,2.602C311.599,42.073,312.085,42.426,312.73,42.812z"/>
		<path fill-rule="evenodd" clip-rule="evenodd" fill="#F3FAF8" fill-opacity="0.502" d="M369.774,387.502
			c-2.009-3.212-4.797-6.231-8.357-9.06c-1.167-2.058-2.463-3.985-3.887-5.783c-8.941-11.631-22.739-19.439-41.399-23.424
			c-1.747,0.517-3.238,1.093-4.469,1.736c-5.571,2.762-5.408,6.875,0.485,12.339c9.135,8.48,19.046,16.225,29.735,23.228
			c0.327,0.193,0.649,0.418,0.973,0.676c0.713,2.25,2.074,4.724,4.082,7.423c1.33,1.806,2.654,3.594,3.976,5.363h14.995
			C367.036,395.853,368.318,391.688,369.774,387.502z"/>
		<path fill-rule="evenodd" clip-rule="evenodd" fill="#F3FAF8" fill-opacity="0.502" d="M265.113,98.139
			c4.407-0.515,7.709-1.252,9.913-2.216c6.284-2.506,3.95-6.554-6.998-12.145c-4.859,0.322-7.675,2.923-8.454,7.807
			c-0.193,1.22-0.193,2.314,0,3.278C259.833,97.498,261.682,98.588,265.113,98.139z"/>
		<path fill-rule="evenodd" clip-rule="evenodd" fill="#F3FAF8" fill-opacity="0.502" d="M328.667,97.754
			c0.972,0.707,1.848,0.804,2.625,0.289c3.435-2.314,2.753-4.113-2.042-5.398C326.142,94.061,325.947,95.763,328.667,97.754z"/>
		<path fill-rule="evenodd" clip-rule="evenodd" fill="#F3FAF8" fill-opacity="0.502" d="M439.547,336.896
			c-0.973-0.32-1.975-0.576-3.013-0.77c-5.699,2.954-8.064,6.008-7.093,9.157c0.388,1.285,1.359,2.604,2.915,3.951
			c1.102,0.964,2.589,1.962,4.471,2.989c2.006,1.156,3.886,1.156,5.635,0c6.803-4.242,8.974-7.809,6.512-10.7
			C447.484,339.725,444.341,338.185,439.547,336.896z"/>
		<path fill-rule="evenodd" clip-rule="evenodd" fill="#F3FAF8" fill-opacity="0.502" d="M362.68,273.088
			c-9.135,4.114-9.718,9.123-1.748,15.038c2.851,2.12,5.474,2.346,7.87,0.674C378.845,281.988,376.802,276.751,362.68,273.088z"/>
		<path fill-rule="evenodd" clip-rule="evenodd" fill="#F3FAF8" fill-opacity="0.502" d="M406.992,14.088
			c-8.875,4.049-9.46,8.933-1.748,14.651c2.784,2.056,5.345,2.281,7.677,0.674C422.639,22.795,420.661,17.687,406.992,14.088z"/>
		<path fill-rule="evenodd" clip-rule="evenodd" fill="#F3FAF8" fill-opacity="0.502" d="M436.827,267.979
			c-3.693,2.058-5.928,4.081-6.706,6.073c-1.492,3.407,1.036,6.845,7.58,10.312c1.749,0.964,3.402,1.288,4.956,0.964
			c0.583-0.192,1.166-0.414,1.748-0.674C456.651,277.906,454.123,272.35,436.827,267.979z"/>
		<path fill-rule="evenodd" clip-rule="evenodd" fill="#F3FAF8" fill-opacity="0.502" d="M319.532,125.61
			c0.714-0.449,1.361-0.867,1.943-1.253c-1.294-0.578-2.589-1.189-3.887-1.832c-0.646,1.286-1.295,2.57-1.943,3.856
			C317.007,126.704,318.302,126.445,319.532,125.61z"/>
		<path fill-rule="evenodd" clip-rule="evenodd" fill="#F3FAF8" fill-opacity="0.502" d="M356.363,96.791
			c0.195-0.064,0.389-0.13,0.582-0.193c4.146-2.314,3.272-4.176-2.623-5.591c-1.229,0.644-1.978,1.316-2.236,2.024
			c-0.516,1.157,0.327,2.313,2.529,3.47C355.198,96.822,355.781,96.919,356.363,96.791z"/>
		<path fill-rule="evenodd" clip-rule="evenodd" fill="#F3FAF8" fill-opacity="0.502" d="M329.25,64.21
			c-0.84-0.449-2.103-0.834-3.788-1.156c-2.528,1.478-3.044,2.86-1.557,4.145c0.456,0.385,1.168,0.771,2.14,1.157
			c0.776,0.256,1.425,0.225,1.942-0.097c0.325-0.193,0.617-0.385,0.876-0.578c1.101-0.835,1.617-1.573,1.555-2.217
			C330.353,64.951,329.964,64.532,329.25,64.21z"/>
		<path fill-rule="evenodd" clip-rule="evenodd" fill="#F3FAF8" fill-opacity="0.502" d="M346.841,197.711
			c1.424,1.156,3.561,2.312,6.413,3.469c2.204,0.838,4.081,0.738,5.636-0.288c0.972-0.579,1.813-1.157,2.527-1.735
			c8.551-6.363,5.246-10.893-9.912-13.593C343.99,190,342.434,194.048,346.841,197.711z"/>
		<path fill-rule="evenodd" clip-rule="evenodd" fill="#557BD5" fill-opacity="0.502" d="M323.712,109.416
			c2.46,1.351,5.248,2.509,8.359,3.473c5.503,1.799,8.55,0.353,9.133-4.337c0.451-4.115-1.686-6.331-6.413-6.653
			c-1.748-0.063-3.339-0.449-4.762-1.157c-1.686-0.834-3.145-2.087-4.374-3.757c-4.665-6.364-9.49-11.729-14.478-16.1
			c-1.556,0.066-2.335,0.677-2.335,1.834C308.456,94.798,313.412,103.699,323.712,109.416z"/>
		<path fill-rule="evenodd" clip-rule="evenodd" fill="#557BD5" fill-opacity="0.502" d="M327.599,73.463
			c0.714,0.322,1.295,0.259,1.75-0.193c2.33-2.248,2.168-4.111-0.485-5.59c-0.263,0.193-0.551,0.388-0.876,0.581
			c-0.518,0.32-1.166,0.352-1.942,0.094c-0.972-0.386-1.686-0.769-2.14-1.157C321.769,69.318,322.999,71.408,327.599,73.463z"/>
		<path fill-rule="evenodd" clip-rule="evenodd" fill="#557BD5" fill-opacity="0.502" d="M353.254,99.105
			c0.906,0.32,1.619,0.127,2.139-0.581c0.389-0.576,0.711-1.157,0.973-1.735c-0.584,0.129-1.167,0.033-1.75-0.287
			c-2.205-1.159-3.047-2.315-2.529-3.472c-0.518-0.063-1.066-0.096-1.649-0.096c-2.202,0.451-2.688,1.512-1.459,3.181
			C350.014,97.53,351.438,98.524,353.254,99.105z"/>
		<path fill-rule="evenodd" clip-rule="evenodd" fill="#557BD5" fill-opacity="0.502" d="M173.767,128.598
			c3.564,1.222,6.284,0.548,8.166-2.021c1.552-2.316,2.719-4.437,3.496-6.364c-2.008,0.321-4.115-0.127-6.317-1.347
			c-8.162-4.371-11.339-8.675-9.522-12.918c-1.944-0.256-4.018-0.386-6.22-0.386c-8.099,1.738-9.815,5.753-5.151,12.049
			C161.976,122.751,167.16,126.415,173.767,128.598z"/>
		<path fill-rule="evenodd" clip-rule="evenodd" fill="#557BD5" fill-opacity="0.502" d="M78.437,33.078
			c2.721,1.22,4.859,1.027,6.413-0.581c8.747-8.482,8.164-15.453-1.749-20.917c-0.909,0.708-1.977,1.445-3.207,2.219
			c-1.944,1.284-4.31,1.38-7.095,0.289c-3.562-1.415-6.285-2.86-8.163-4.337C56.733,17.783,61.333,25.557,78.437,33.078z"/>
		<path fill-rule="evenodd" clip-rule="evenodd" fill="#557BD5" fill-opacity="0.502" d="M94.957,179.973
			c20.731,6.555,32.069,1.158,34.013-16.192c1.748-15.357-6.157-23.583-23.714-24.674c-14.317-0.837-25.686-6.973-34.108-18.413
			C53.851,97.178,35.904,77.256,17.312,60.932c-5.636,0.129-8.519,2.378-8.649,6.748C7.044,123.586,35.809,161.018,94.957,179.973z"
			/>
		<path fill-rule="evenodd" clip-rule="evenodd" fill="#557BD5" fill-opacity="0.502" d="M360.057,33.56
			c1.943,3.147,4.146,6.135,6.606,8.964c1.686,1.413,3.174,3.019,4.472,4.819c3.888,3.79,8.291,7.323,13.216,10.603
			c8.615,5.589,18.788,10.281,30.515,14.071c14.25,4.563,22.737,1.735,25.459-8.482c0.323-1.22,0.551-2.537,0.68-3.95
			c1.362-11.826-4.695-18.154-18.171-18.989c-11.015-0.644-19.79-5.367-26.335-14.171C389.467,16.831,382.286,8.028,374.964,0
			h-25.962c0.806,7.632,2.481,14.738,5.028,21.318C355.651,25.623,357.659,29.705,360.057,33.56z"/>
		<path fill-rule="evenodd" clip-rule="evenodd" fill="#557BD5" fill-opacity="0.502" d="M475.502,32.497
			c2.723,0.901,4.797,0.388,6.222-1.54c1.23-1.8,2.137-3.439,2.72-4.918c-1.489,0.258-3.11-0.063-4.858-0.964
			c-6.284-3.404-8.714-6.747-7.288-10.021c-1.491-0.129-3.111-0.195-4.859-0.195c-6.22,1.286-7.516,4.371-3.887,9.253
			C466.466,28.033,470.449,30.829,475.502,32.497z"/>
		<path fill-rule="evenodd" clip-rule="evenodd" fill="#557BD5" fill-opacity="0.502" d="M339.746,396.757
			c-0.972-3.661-4.566-6.653-10.786-8.963c-1.229,0.062-2.011,0.608-2.333,1.636c-1.163,3.819-0.596,7.342,1.692,10.57h13.638
			C341.954,398.975,341.225,397.895,339.746,396.757z"/>
		<path fill-rule="evenodd" clip-rule="evenodd" fill="#557BD5" fill-opacity="0.502" d="M450.528,187.01
			c2.396,1.543,4.179,1.35,5.345-0.578c0.584-1.09,1.07-2.054,1.458-2.892c5.442-2.892,5.796-6.169,1.07-9.832
			c-1.492-5.524-6.901-10.022-16.229-13.494c-1.817,0.128-2.982,0.963-3.499,2.508C435.887,171.974,439.839,180.073,450.528,187.01z
			"/>
		<path fill-rule="evenodd" clip-rule="evenodd" fill="#557BD5" fill-opacity="0.502" d="M545.762,9.075
			c-2.656,0.388-4.08-0.449-4.273-2.504c-0.454,0.063-1.006,0.191-1.653,0.384c-2.72,0.644-3.726,2.056-3.012,4.243
			c2.179,6.123,6.575,10.219,13.177,12.304V8.417C548.767,8.671,547.358,8.892,545.762,9.075z"/>
		<path fill-rule="evenodd" clip-rule="evenodd" fill="#557BD5" fill-opacity="0.502" d="M514.858,71.053
			c-8.939,4.692-18.786,8.259-29.54,10.702c-6.286,1.347-12.861,2.344-19.728,2.986c-29.994,2.764-55.941-0.868-77.839-10.89
			c-3.888-1.801-7.647-3.762-11.272-5.882c-2.463-1.476-4.858-3.052-7.191-4.721c-12.505-8.804-23.389-20.211-32.651-34.219
			c-4.571-6.894-8.74-14.43-12.507-22.604c-0.966-2.095-1.895-4.246-2.807-6.425h-29.318c2.365,7.605,5.379,15.129,9.063,22.569
			c0.196,1.864,0.392,3.728,0.585,5.59c0.193,1.865,0.355,3.761,0.485,5.689c-3.821,4.048-6.996,8.898-9.523,14.553
			c-7.709,17.03-7.646,33.127,0.193,48.294c-1.165,3.147-2.365,6.232-3.594,9.251c-1.556-2.826-3.759-5.14-6.609-6.94
			c-2.202-1.284-4.729-2.311-7.579-3.084c-2.204,0.964-5.506,1.705-9.913,2.219c-3.434,0.449-5.28-0.644-5.539-3.279
			c-0.583,0.129-1.296,0.322-2.137,0.578c-3.564,0.837-4.858,2.636-3.887,5.401c2.588,7.452,7.675,12.594,15.256,15.422
			c4.081,1.54,8.845,2.41,14.284,2.603c-9.846,18.89-22.383,34.379-37.606,46.457c-22.093,17.542-49.885,27.923-83.379,31.137
			c-0.387,0-0.776,0.03-1.165,0.094c-2.137,0.194-4.212,0.355-6.218,0.482C86.944,201.765,35.374,180.633,0,133.657v51.732
			c12.979,4.997,25.233,11.594,36.748,19.838c6.153,4.435,11.208,9.575,15.159,15.424c0.454,0.644,0.875,1.285,1.264,1.928
			c11.466,18.701,18.688,38.911,21.67,60.631c0.258,1.928,0.486,3.886,0.681,5.878c1.036,10.217,0.647,20.308-1.167,30.269
			c-1.038,5.653-2.527,11.274-4.47,16.868c-1.102,2.954-2.204,5.846-3.304,8.675c-1.944-3.599-5.345-6.009-10.204-7.229
			c-1.555,0.706-3.92,1.22-7.093,1.54c-2.463,0.388-3.791-0.387-3.985-2.314c-0.388,0.066-0.907,0.192-1.555,0.386
			c-2.527,0.645-3.434,1.96-2.721,3.952c2.849,8.163,9.911,12.467,21.185,12.916c-2.72,5.271-5.767,10.188-9.135,14.748
			c-20.042,6.25-36.837,16.62-50.401,31.102h42.014c5.875-3.301,12.256-6.128,19.175-8.45c2.654-0.896,5.377-1.702,8.163-2.41
			c17.944-0.964,34.854,0.452,50.726,4.243c7.112,1.718,14.016,3.931,20.716,6.617h75.37c1.344-5.959,3.125-11.514,5.369-16.645
			c2.978-7.129,6.803-13.523,11.466-19.178c0.258-0.066,0.548-0.13,0.875-0.193c1.617-0.388,2.946-0.803,3.984-1.252
			c-3.498-3.021-2.591-5.914,2.72-8.676c0.714,0.126,1.394,0.289,2.042,0.482c2.98-2.51,6.186-4.758,9.619-6.747
			c6.998-4.244,14.998-7.552,24.004-9.932c2.07-0.127,4.145-0.189,6.219-0.189c3.499-0.066,6.932,0,10.301,0.189
			c25.008,1.225,47.258,8.838,66.763,22.844c5.052,3.664,9.068,7.938,12.048,12.821c0.193,0.259,0.357,0.547,0.485,0.867
			c-1.878,4.369-3.529,8.742-4.955,13.109c-1.456,4.186-2.738,8.351-3.866,12.498h35.103c1.176-4.403,2.512-8.674,4.038-12.788
			c0.972-2.762,2.042-5.46,3.207-8.094c4.534-10.347,10.14-19.6,16.813-27.763c0.387-0.063,0.84-0.16,1.358-0.29
			c2.397-0.576,4.373-1.187,5.929-1.828c-1.556-1.352-2.527-2.668-2.915-3.955c-0.972-3.147,1.394-6.197,7.095-9.157
			c1.034,0.194,2.038,0.451,3.011,0.771c13.669-11.437,30.578-19.823,50.728-25.157c3.628-0.193,7.256-0.287,10.885-0.287
			c10.493-0.129,20.729,0.449,30.706,1.733c6.155,0.823,12.199,1.921,18.135,3.289V40.604
			C540.507,53.537,528.799,63.695,514.858,71.053z M297.668,81.08c0.129-6.554,0.939-13.238,2.429-20.049
			c0.521-2.25,1.168-4.404,1.944-6.458c1.621-4.626,3.854-8.644,6.707-12.049c0.129-0.066,0.291-0.099,0.485-0.099
			c0.84-0.256,1.521-0.482,2.038-0.672c-1.034-0.901-1.327-1.768-0.872-2.603c0.778,1.22,1.587,2.473,2.43,3.757
			c1.358,1.993,2.783,4.018,4.274,6.075c3.887,5.396,7.938,10.473,12.146,15.229c0.714,0.32,1.102,0.738,1.168,1.251
			c14.317,15.873,30.544,28.082,48.685,36.628c-6.671,8.997-16.455,14.073-29.347,15.229c-8.877,0.837-16.748,0.066-23.614-2.311
			c-1.428-0.515-2.817-1.094-4.18-1.738c-10.298-4.883-18.042-13.878-23.224-26.989c-0.714-1.735-1.07-3.437-1.07-5.108V81.08z
			 M82.712,364.66c1.813-3.214,3.532-6.427,5.15-9.639c1.944,3.341,4.146,6.681,6.609,10.021
			C90.584,364.786,86.664,364.66,82.712,364.66z M93.597,237.325c-0.453-1.284-0.875-2.535-1.264-3.756
			c1.1,0.257,2.235,0.481,3.401,0.672C94.957,235.205,94.243,236.235,93.597,237.325z M270.849,319.645
			c-31.097,7.518-53.417,26.219-66.957,56.1c-2.137,4.689-3.952,9.317-5.44,13.877c-0.584,0.068-1.167,0.131-1.75,0.194
			c-6.996,0.645-13.64,0.77-19.921,0.388c-16.521-10.221-34.563-17.35-54.127-21.4c-10.431-9.51-18.919-22.137-25.461-37.88
			c5.7-19.6,7.127-39.875,4.276-60.825c3.302-10.665,8.161-19.886,14.577-27.663c0.258-0.064,0.55-0.128,0.873-0.19
			c1.621-0.388,2.95-0.803,3.986-1.256c-1.428-1.219-2.107-2.409-2.042-3.563c4.472,0.319,9.004,0.576,13.605,0.771
			c8.228,0.193,16.684,0.032,25.365-0.482c10.496-0.645,20.567-2.056,30.222-4.243c5.312-1.156,10.494-2.567,15.548-4.237
			c4.276-1.352,8.486-2.893,12.633-4.63c7.901,3.151,15.481,7.133,22.74,11.953c1.101,7.454,2.817,14.847,5.151,22.17
			c2.396,7.646,5.44,15.262,9.133,22.846c4.601,9.25,10.169,18.407,16.714,27.47c0.52,0.706,1.036,1.415,1.556,2.123
			C271.464,313.989,271.236,316.817,270.849,319.645z M528.659,264.508c-1.167,3.28-2.367,6.46-3.597,9.546
			c-2.138-3.922-5.894-6.558-11.271-7.905c-1.749,0.77-4.372,1.348-7.873,1.733c-2.722,0.388-4.179-0.481-4.373-2.604
			c-0.455,0.068-1.036,0.194-1.75,0.389c-2.85,0.705-3.887,2.151-3.108,4.337c2.009,5.72,5.86,9.732,11.564,12.049
			c-7.191-0.194-14.514-0.098-21.961,0.288c-42.565,8.289-74.892,29.624-96.984,64.005c-6.413-0.514-12.603-1.383-18.561-2.604
			c-14.9-10.667-31.486-17.994-49.756-21.976c-11.597-8.676-21.735-19.569-30.415-32.679c-6.869-10.216-12.861-21.814-17.978-34.795
			c-2.075-5.207-3.111-10.283-3.111-15.232c0-0.447,0.034-0.929,0.099-1.445c0.323-18.248,2.526-36.884,6.608-55.906
			c0.129-0.064,0.225-0.16,0.291-0.29c16.131-17.863,29.186-36.209,39.161-55.036c0.648-1.286,1.294-2.572,1.943-3.856
			c1.294,0.642,2.593,1.251,3.887,1.829c8.097,3.344,17.233,4.692,27.405,4.048c12.891-0.835,23.551-5.877,31.972-15.133
			c2.269-2.57,4.339-5.14,6.218-7.711c7.388,2.958,15.097,5.334,23.129,7.133c15.807,3.536,32.782,4.853,50.921,3.952
			c0.714-0.063,1.427-0.127,2.14-0.19c6.996-0.452,13.765-1.319,20.31-2.603c2.85,1.799,5.666,3.694,8.453,5.685
			c5.443,3.922,10.108,8.323,13.996,13.206c-0.454,11.504-0.196,22.911,0.775,34.219c0.39,4.819,0.94,9.608,1.653,14.363
			c3.626,26.026,11.077,51.601,22.352,76.725C530.149,260.171,529.436,262.325,528.659,264.508z"/>
		<path fill-rule="evenodd" clip-rule="evenodd" fill="#557BD5" fill-opacity="0.502" d="M433.426,291.979
			c2.849,0.964,4.986,0.45,6.413-1.54c1.295-1.865,2.235-3.568,2.818-5.111c-1.554,0.322-3.205,0-4.956-0.964
			c-6.544-3.469-9.072-6.907-7.58-10.311c-1.555-0.194-3.208-0.292-4.956-0.292c-6.478,1.35-7.84,4.529-4.082,9.543
			C424.062,287.354,428.178,290.246,433.426,291.979z"/>
		<path fill-rule="evenodd" clip-rule="evenodd" fill="#557BD5" fill-opacity="0.502" d="M357.724,216.22
			c2.138,0.963,3.854,0.802,5.151-0.482c6.867-6.747,6.382-12.274-1.458-16.58c-0.714,0.576-1.556,1.158-2.527,1.733
			c-1.553,1.029-3.434,1.126-5.636,0.288c-2.853-1.155-4.989-2.31-6.413-3.467C340.49,204.07,344.119,210.242,357.724,216.22z"/>
		<path fill-rule="evenodd" clip-rule="evenodd" fill="#557BD5" fill-opacity="0.502" d="M379.006,300.366
			c-11.337-0.644-20.375-5.494-27.112-14.557c-13.734-18.697-27.988-34.538-42.759-47.521c-4.469,0.13-6.737,1.928-6.802,5.401
			c-1.296,44.34,21.54,74.059,68.511,89.161c16.455,5.201,25.459,0.897,27.015-12.919
			C399.218,307.789,392.936,301.267,379.006,300.366z"/>
		<path fill-rule="evenodd" clip-rule="evenodd" fill="#557BD5" fill-opacity="0.502" d="M214.874,283.883
			c1.619,1.029,2.818,0.899,3.595-0.385c0.391-0.708,0.713-1.352,0.972-1.927c3.629-1.929,3.855-4.114,0.681-6.554
			c-0.972-3.666-4.568-6.653-10.786-8.967c-1.234,0.065-2.008,0.611-2.333,1.638C205.121,273.859,207.746,279.255,214.874,283.883z"
			/>
		<path fill-rule="evenodd" clip-rule="evenodd" fill="#557BD5" fill-opacity="0.502" d="M203.504,353.862
			c1.879,0.645,3.302,0.288,4.274-1.062c0.843-1.219,1.458-2.344,1.849-3.373c-1.04,0.192-2.139-0.03-3.306-0.672
			c-4.339-2.316-6.025-4.596-5.053-6.848c-1.037-0.126-2.137-0.191-3.303-0.191c-4.278,0.9-5.185,3.021-2.722,6.363
			C197.252,350.777,200.004,352.705,203.504,353.862z"/>
		<path fill-rule="evenodd" clip-rule="evenodd" fill="#557BD5" fill-opacity="0.502" d="M161.814,381.046
			c10.948,3.469,16.94,0.608,17.979-8.581c0.905-8.097-3.274-12.435-12.537-13.013c-7.581-0.449-13.604-3.693-18.074-9.732
			c-9.135-12.469-18.625-23.008-28.472-31.618c-2.984,0.065-4.506,1.255-4.569,3.564
			C115.297,351.227,130.522,371.02,161.814,381.046z"/>
		<path fill-rule="evenodd" clip-rule="evenodd" fill="#557BD5" fill-opacity="0.502" d="M153.069,303.353
			c1.426,0.644,2.557,0.55,3.401-0.288c4.599-4.497,4.276-8.192-0.971-11.085c-0.454,0.388-1.004,0.77-1.653,1.157
			c-1.036,0.707-2.3,0.771-3.789,0.194c-1.879-0.773-3.304-1.546-4.276-2.315C141.569,295.26,143.999,299.37,153.069,303.353z"/>
		<path fill-rule="evenodd" clip-rule="evenodd" fill="#557BD5" fill-opacity="0.502" d="M6.331,254.1
			c-0.786-2.999-2.902-5.666-6.331-8.005v20.489c1.816,0.914,3.182,0.609,4.096-0.917c0.519-0.965,0.938-1.835,1.263-2.604
			C10.282,260.429,10.606,257.441,6.331,254.1z"/>
		<path fill-rule="evenodd" clip-rule="evenodd" fill="#557BD5" fill-opacity="0.502" d="M2.832,293.619
			c-0.745-2.066-1.703-3.943-2.832-5.672v47.562C7.323,322.541,8.283,308.581,2.832,293.619z"/>
	</g>
</g>
<g>
	<path fill-rule="evenodd" clip-rule="evenodd" fill="#990000" d="M474.003,193.129c-1.363,1.882-1.655,4.186-0.876,6.913
		c0.844,2.79,2.563,4.673,5.159,5.646c3.829,1.298,4.641,0.26,2.434-3.115c-0.454-0.714-0.714-1.429-0.778-2.143
		c0-0.389-0.032-0.778-0.098-1.168c2.337,0.52,3.115-0.26,2.337-2.336c-1.298-3.57-3.407-6.069-6.328-7.497
		C474.425,190.404,473.808,191.637,474.003,193.129z M457.647,217.565c1.492,2.271,3.472,3.895,5.938,4.867
		c0.649,0.26,1.006,0.098,1.071-0.486c0-6.36-3.051-10.677-9.151-12.948c-0.714,0.324-1.201,0.714-1.461,1.168
		c-1.558-2.076-3.375-3.472-5.451-4.186c-0.909,0.26-1.428,0.908-1.558,1.947c-0.195,2.076,0.259,3.991,1.362,5.743
		c2.271,3.57,5.225,4.9,8.859,3.992C457.388,217.663,457.518,217.63,457.647,217.565z M475.171,241.125
		c-29.53,18.692-51.857,18.465-66.979-0.682c-10.839-9.93-15.966-28.135-15.382-54.615c0.648-24.728,13.078-41.862,37.286-51.403
		c29.921-6.166,46.503,5.419,49.748,34.756C492.24,204.941,490.683,228.923,475.171,241.125z M415.006,175.508
		c-1.688-1.297-3.634-2.271-5.841-2.92c-0.324,0.065-0.649,0.228-0.974,0.487c-0.714,0.584-0.812,1.103-0.292,1.558
		c3.439,2.92,5.646,6.587,6.62,11.001c0.39,1.688,1.2,3.018,2.434,3.992c3.57,2.791,4.998,2.207,4.284-1.752
		c-0.065-0.649-0.163-1.201-0.293-1.656c-0.259-1.427-0.616-2.726-1.07-3.894c0.064,0.064,0.162,0.097,0.292,0.097
		c1.038,0.52,1.558,0.228,1.558-0.876c0.778-7.983-2.693-12.104-10.417-12.364c-0.974,0.26-1.558,0.876-1.752,1.85
		c-0.13,0.714,0.097,1.168,0.681,1.363C412.312,172.912,413.903,173.951,415.006,175.508z M434.039,163.242
		c-0.299,0.205-0.542,0.465-0.73,0.779c-1.688,2.401-1.006,3.57,2.045,3.505c1.492-0.064,2.336,0.584,2.531,1.947
		c0.389,2.272,1.428,4.024,3.115,5.257c1.752,1.363,2.693,1.006,2.823-1.071c0.13-1.817,0.032-3.407-0.292-4.771
		c0.519,0.065,0.876-0.227,1.07-0.876c1.298-3.375-0.227-6.068-4.575-8.08c-4.738-2.207-9.476-3.765-14.214-4.673
		c-0.52,0.195-0.974,0.487-1.363,0.876c-0.454,0.649-0.486,1.104-0.097,1.364C427.555,159.355,430.784,161.271,434.039,163.242z
		 M428.441,226.133c1.103,1.168,2.368,2.336,3.797,3.505c2.142,1.752,4.251,3.504,6.327,5.257c0.52,0.454,0.812,0.422,0.877-0.098
		c1.103-7.074-2.271-11.033-10.125-11.877C427.564,223.698,427.272,224.77,428.441,226.133z M447.133,199.457
		c1.947-6.229-0.486-10.125-7.302-11.682c-1.688,0.779-2.076,1.979-1.168,3.602c0.779,1.298,1.753,2.499,2.921,3.603
		c1.298,1.362,2.693,2.888,4.187,4.575C446.419,200.334,446.873,200.301,447.133,199.457z M457.55,244.241
		c-25.571-6.556-42.706-21.224-51.403-44.005C406.536,235.998,423.671,250.666,457.55,244.241z M474.879,188.457
		c-0.454-35.762-15.479-51.014-45.075-45.757C451.027,150.358,466.052,165.611,474.879,188.457z"/>
	<path fill-rule="evenodd" clip-rule="evenodd" fill="#DF596F" d="M474.003,193.13c-0.195-1.493,0.422-2.726,1.85-3.699
		c2.921,1.428,5.03,3.927,6.328,7.497c0.778,2.076,0,2.855-2.337,2.336c-2.206-0.584-3.894-1.914-5.062-3.991
		C474.393,194.493,474.133,193.779,474.003,193.13z M457.647,217.565c-0.26-0.324-0.52-0.714-0.779-1.168
		c-0.714-1.299-1.525-2.597-2.434-3.895c-0.584-0.908-0.714-1.688-0.39-2.337c0.26-0.454,0.747-0.844,1.461-1.168
		c6.101,2.271,9.151,6.588,9.151,12.948c-0.065,0.584-0.422,0.746-1.071,0.486C461.119,221.46,459.14,219.837,457.647,217.565z
		 M419.874,182.324c-1.753-0.909-3.019-2.531-3.797-4.868c-0.26-0.714-0.616-1.363-1.071-1.947
		c-1.103-1.558-2.693-2.596-4.771-3.115c-0.584-0.195-0.811-0.649-0.681-1.363c0.194-0.974,0.778-1.59,1.752-1.85
		c7.724,0.259,11.195,4.38,10.417,12.364c0,1.104-0.52,1.396-1.558,0.876C420.036,182.421,419.938,182.389,419.874,182.324z
		 M443.531,168.889c-0.325,0-0.649-0.13-0.974-0.389c-2.855-1.817-5.646-3.537-8.373-5.16l-0.097-0.097h-0.049
		c-3.255-1.971-6.484-3.886-9.687-5.744c-0.39-0.26-0.357-0.714,0.097-1.363c0.39-0.389,0.844-0.681,1.363-0.876
		c4.738,0.909,9.476,2.466,14.214,4.673c4.349,2.012,5.873,4.706,4.575,8.081C444.407,168.662,444.05,168.954,443.531,168.889z
		 M447.133,199.458c-0.26,0.843-0.714,0.876-1.362,0.098c-1.493-1.688-2.889-3.213-4.187-4.575
		c-1.168-1.104-2.142-2.304-2.921-3.603c-0.908-1.623-0.52-2.823,1.168-3.602C446.646,189.333,449.08,193.228,447.133,199.458z
		 M428.441,226.133c-1.169-1.363-0.877-2.435,0.876-3.213c7.854,0.844,11.228,4.803,10.125,11.877
		c-0.065,0.52-0.357,0.552-0.877,0.098c-2.076-1.753-4.186-3.505-6.327-5.257C430.81,228.469,429.544,227.301,428.441,226.133z
		 M474.879,188.457c-8.827-22.846-23.852-38.098-45.075-45.756C459.399,137.443,474.425,152.696,474.879,188.457z"/>
	<path fill-rule="evenodd" clip-rule="evenodd" fill="#750100" d="M457.647,217.565c-0.13,0.064-0.26,0.098-0.39,0.098
		c-3.635,0.908-6.588-0.422-8.859-3.992c-1.104-1.752-1.558-3.667-1.362-5.743c0.13-1.039,0.648-1.688,1.558-1.947
		c2.076,0.714,3.894,2.109,5.451,4.186c-0.324,0.649-0.194,1.429,0.39,2.337c0.908,1.298,1.72,2.596,2.434,3.895
		C457.128,216.852,457.388,217.241,457.647,217.565z M474.003,193.129c0.13,0.649,0.39,1.363,0.778,2.142
		c1.169,2.077,2.856,3.407,5.062,3.991c0.065,0.39,0.098,0.779,0.098,1.168c0.064,0.714,0.324,1.429,0.778,2.143
		c2.207,3.375,1.396,4.413-2.434,3.115c-2.596-0.974-4.315-2.856-5.159-5.646C472.348,197.315,472.64,195.012,474.003,193.129z
		 M415.006,175.508c0.455,0.584,0.812,1.233,1.071,1.947c0.778,2.336,2.044,3.959,3.797,4.868c0.454,1.168,0.812,2.466,1.07,3.894
		c0.13,0.455,0.228,1.006,0.293,1.655c0.714,3.959-0.714,4.543-4.284,1.752c-1.233-0.974-2.044-2.304-2.434-3.992
		c-0.974-4.414-3.181-8.081-6.62-11.001c-0.52-0.455-0.422-0.974,0.292-1.558c0.324-0.26,0.649-0.422,0.974-0.487
		C411.372,173.237,413.318,174.21,415.006,175.508z M434.039,163.242h0.049l0.097,0.097c2.727,1.623,5.518,3.343,8.373,5.16
		c0.324,0.259,0.648,0.389,0.974,0.389c0.324,1.363,0.422,2.953,0.292,4.771c-0.13,2.077-1.071,2.434-2.823,1.071
		c-1.688-1.233-2.727-2.985-3.115-5.257c-0.195-1.363-1.039-2.012-2.531-1.947c-3.051,0.065-3.732-1.104-2.045-3.505
		C433.497,163.707,433.74,163.447,434.039,163.242z M457.55,244.24c-33.879,6.426-51.014-8.242-51.403-44.004
		C414.844,223.018,431.979,237.686,457.55,244.24z"/>
	<path fill-rule="evenodd" clip-rule="evenodd" fill="#890100" d="M474.295,250.86c-17.783,10.386-33.133,14.507-46.049,12.364
		c-10.125-1.623-18.789-6.977-25.993-16.062c-12.526-11.554-18.4-32.518-17.621-62.892c0.648-28.363,14.896-48.061,42.738-59.094
		c34.464-7.074,53.545,6.23,57.244,39.916c14.278,41.148,12.461,68.765-5.452,82.848C477.54,248.979,475.917,249.953,474.295,250.86
		z M475.171,241.125c15.512-12.202,17.069-36.184,4.673-71.944c-3.245-29.336-19.827-40.921-49.748-34.756
		c-24.208,9.541-36.638,26.675-37.286,51.404c-0.584,26.48,4.543,44.685,15.382,54.615
		C423.313,259.59,445.641,259.817,475.171,241.125z"/>
	<path fill-rule="evenodd" clip-rule="evenodd" fill="#7BC824" d="M287.473,214.06c-4.674,3.57-6.912,9.055-6.718,16.454
		c0.13,7.528,3.147,13.337,9.054,17.426c8.633,5.906,11.293,3.829,7.983-6.23c-0.649-2.012-0.812-3.927-0.487-5.744
		c0.26-0.973,0.422-1.979,0.487-3.018c5.517,2.985,8.016,1.59,7.495-4.187c-0.843-9.605-4.478-17.134-10.902-22.586
		C290.166,207.602,287.861,210.231,287.473,214.06z M208.616,113.883c-0.13-0.065-0.227-0.097-0.292-0.097
		c-0.844,0.064-1.59,0.421-2.24,1.071c-5.775,4.933-4.9,8.308,2.629,10.125c3.7,0.974,5.387,3.181,5.063,6.62
		c-0.52,5.711,0.908,10.741,4.283,15.089c3.505,4.479,6.101,4.219,7.789-0.778c1.492-4.478,2.239-8.502,2.239-12.072
		c1.233,0.519,2.368,0.065,3.407-1.363c5.322-7.594,3.343-15.252-5.938-22.976c-10.32-8.632-21.126-15.642-32.419-21.029
		c-1.234,0.065-2.499,0.52-3.797,1.363c-1.623,1.103-1.948,2.174-0.974,3.212C194.985,99.799,201.735,106.744,208.616,113.883z
		 M153.124,131.212c-3.18-4.284-7.334-7.983-12.461-11.099c-0.844,0.065-1.752,0.292-2.726,0.682
		c-2.142,1.039-2.726,2.304-1.752,3.797c6.49,9.411,9.508,19.893,9.054,31.446c-0.194,4.478,0.941,8.307,3.408,11.487
		c7.074,9.282,11.001,8.827,11.78-1.362c0.13-1.688,0.227-3.181,0.292-4.479c0.26-3.635,0.26-7.042,0-10.222
		c0.13,0.065,0.26,0.195,0.389,0.39c2.272,1.946,3.895,1.622,4.868-0.974c7.14-19.341,1.233-31.932-17.718-37.773
		c-2.466,0.13-4.316,1.331-5.549,3.602c-0.974,1.688-0.779,2.888,0.584,3.602C148.159,123.1,151.436,126.734,153.124,131.212z
		 M213.289,211.335c1.103,2.206,2.239,2.369,3.407,0.486c8.957-14.084,5.55-25.247-10.222-33.49
		c-4.673,0.65-6.425,3.311-5.257,7.983c0.973,3.765,2.499,7.367,4.575,10.807C208.324,201.47,210.823,206.207,213.289,211.335z
		 M157.115,257.968c-4.803,0.778-6.198,3.245-4.187,7.398c1.947,3.699,4.251,7.464,6.912,11.293
		c4.219,5.712,8.308,11.423,12.267,17.135c0.974,1.362,1.752,1.428,2.337,0.194C181.844,277.373,176.067,265.366,157.115,257.968z
		 M230.715,263.711c2.207,6.49,6.004,11.748,11.391,15.771c1.557,1.233,2.531,1.071,2.92-0.486
		c4.413-15.512-0.227-28.2-13.921-38.065c-2.012,0.324-3.473,1.005-4.381,2.044c-2.532-6.166-6.134-10.839-10.807-14.019
		c-2.336,0.063-3.926,1.266-4.77,3.602c-2.012,5.062-2.239,10.223-0.681,15.479c3.31,10.189,9.735,15.415,19.276,15.674
		C230.065,263.711,230.391,263.711,230.715,263.711z M91.499,142.019c17.913-60.62,59.97-94.758,126.171-102.417
		c78.143,4.608,111.568,44.264,100.275,118.967c6.814,96.64-13.014,154.956-59.484,174.945
		c-85.477,26.676-140.482,11.294-165.015-46.146C73.001,255.501,72.352,207.051,91.499,142.019z M114.669,186.509
		c-22.651,88.787,10.06,136.459,98.133,143.014C154,296.422,121.289,248.751,114.669,186.509z M292.535,202.962
		c22.65-88.722-4.35-136.393-80.999-143.013C258.915,93.049,285.914,140.721,292.535,202.962z"/>
	<path fill-rule="evenodd" clip-rule="evenodd" fill="#6A9D1E" d="M297.792,232.947c-0.065,1.038-0.228,2.045-0.487,3.018
		c-0.324,1.817-0.162,3.732,0.487,5.744c3.31,10.061,0.649,12.137-7.983,6.23c-5.906-4.09-8.924-9.897-9.054-17.426
		c-0.194-7.399,2.044-12.884,6.718-16.453c-0.26,1.623-0.162,3.505,0.291,5.646C289.387,225.743,292.729,230.156,297.792,232.947z
		 M226.723,242.974c-1.233,1.364-1.363,3.344-0.389,5.939c1.363,3.765,2.498,7.562,3.407,11.391c0.26,1.168,0.584,2.305,0.974,3.407
		c-0.325,0-0.649,0-0.974,0c-9.54-0.259-15.966-5.484-19.276-15.674c-1.557-5.257-1.33-10.417,0.681-15.48
		c0.844-2.335,2.434-3.536,4.771-3.601C220.59,232.136,224.192,236.809,226.723,242.974z M208.615,113.883
		c5.712,5.971,11.521,12.137,17.427,18.497c0.714,0.714,1.395,1.201,2.044,1.46c0,3.57-0.746,7.594-2.239,12.072
		c-1.687,4.998-4.284,5.257-7.789,0.779c-3.375-4.348-4.802-9.378-4.283-15.09c0.324-3.439-1.363-5.646-5.062-6.62
		c-7.529-1.817-8.405-5.192-2.629-10.125c0.649-0.649,1.396-1.006,2.239-1.071C208.388,113.786,208.486,113.818,208.615,113.883z
		 M153.124,131.212c0.714,1.752,1.136,3.699,1.266,5.841c0.39,6.036,2.499,10.838,6.328,14.408c0.26,3.18,0.26,6.587,0,10.222
		c-0.065,1.298-0.162,2.791-0.292,4.479c-0.779,10.189-4.706,10.644-11.78,1.363c-2.466-3.18-3.602-7.009-3.408-11.488
		c0.455-11.553-2.563-22.035-9.054-31.445c-0.974-1.493-0.39-2.758,1.752-3.797c0.973-0.39,1.882-0.617,2.726-0.682
		C145.79,123.229,149.943,126.929,153.124,131.212z M114.669,186.509c6.62,62.242,39.331,109.913,98.133,143.013
		C124.729,322.968,92.018,275.296,114.669,186.509z"/>
	<path fill-rule="evenodd" clip-rule="evenodd" fill="#A0DC45" d="M226.723,242.975c0.909-1.038,2.369-1.72,4.381-2.044
		c13.695,9.865,18.334,22.554,13.921,38.065c-0.39,1.557-1.363,1.72-2.921,0.486c-5.387-4.023-9.184-9.281-11.39-15.771
		c-0.39-1.103-0.714-2.24-0.974-3.408c-0.909-3.828-2.044-7.625-3.407-11.39C225.36,246.317,225.49,244.338,226.723,242.975z
		 M297.792,232.947c-5.062-2.791-8.405-7.204-10.028-13.24c-0.453-2.142-0.551-4.023-0.291-5.646
		c0.389-3.829,2.693-6.458,6.912-7.886c6.424,5.452,10.06,12.98,10.903,22.586C305.807,234.537,303.309,235.933,297.792,232.947z
		 M228.086,133.841c-0.649-0.26-1.331-0.747-2.044-1.46c-5.906-6.36-11.715-12.526-17.427-18.497
		c-6.879-7.14-13.629-14.084-20.25-20.834c-0.974-1.038-0.649-2.109,0.974-3.212c1.298-0.844,2.563-1.298,3.797-1.363
		c11.293,5.387,22.099,12.396,32.419,21.029c9.281,7.723,11.261,15.382,5.938,22.976
		C230.455,133.906,229.319,134.36,228.086,133.841z M160.717,151.462c-3.83-3.57-5.938-8.373-6.328-14.408
		c-0.13-2.142-0.552-4.089-1.266-5.841c-1.688-4.479-4.965-8.113-9.833-10.904c-1.363-0.714-1.558-1.915-0.584-3.602
		c1.233-2.271,3.083-3.472,5.549-3.602c18.952,5.841,24.858,18.432,17.718,37.773c-0.973,2.596-2.596,2.92-4.868,0.974
		C160.977,151.657,160.847,151.527,160.717,151.462z M157.115,257.968c18.952,7.398,24.728,19.405,17.329,36.021
		c-0.584,1.232-1.363,1.168-2.337-0.194c-3.959-5.712-8.048-11.423-12.267-17.135c-2.661-3.829-4.965-7.594-6.912-11.293
		C150.917,261.213,152.312,258.746,157.115,257.968z M213.289,211.335c-2.466-5.128-4.965-9.865-7.497-14.214
		c-2.077-3.44-3.602-7.042-4.576-10.807c-1.168-4.673,0.584-7.333,5.257-7.983c15.771,8.243,19.179,19.406,10.222,33.49
		C215.527,213.704,214.392,213.541,213.289,211.335z M292.535,202.962c-6.621-62.241-33.62-109.913-80.999-143.013
		C288.186,66.569,315.186,114.24,292.535,202.962z"/>
	<path fill-rule="evenodd" clip-rule="evenodd" fill="#50A60F" d="M91.499,142.019c-19.146,65.032-18.498,113.482,1.947,145.35
		c24.533,57.439,79.538,72.821,165.015,46.146c46.47-19.989,66.298-78.305,59.484-174.945
		C329.237,83.866,295.812,44.21,217.669,39.602C151.469,47.261,109.412,81.399,91.499,142.019z M72.222,132.77
		c20.444-69.706,68.765-108.939,144.96-117.701c89.825,5.322,128.216,50.884,115.17,136.685
		c7.918,111.179-14.862,178.223-68.343,201.134c-98.198,30.634-161.413,12.98-189.646-52.961
		C50.869,263.192,50.155,207.473,72.222,132.77z"/>
</g>
</svg>
